<svg width="218" height="78" viewBox="0 0 218 78" fill="none" xmlns="http://www.w3.org/2000/svg">
<g clip-path="url(#clip0_554_24747)">
<path d="M96.27 65.9305V16.3105" stroke="black" stroke-width="0.3" stroke-miterlimit="10"/>
<path d="M69.8301 9.67016L94.1201 24.2602V57.7802L69.8301 68.3502L45.5401 57.7802V24.2602L69.8301 9.67016ZM69.8301 7.16016L43.3901 23.0002V59.1902L69.8301 70.7002L96.2701 59.1902V23.0002L69.8301 7.16016Z" fill="black"/>
<path d="M61.2998 74.4105L104.81 55.4805" stroke="black" stroke-width="0.3" stroke-miterlimit="10"/>
<path d="M78.3599 74.4105L34.8599 55.4805" stroke="black" stroke-width="0.3" stroke-miterlimit="10"/>
<path d="M37.3701 26.6591L75.8501 3.53906" stroke="black" stroke-width="0.3" stroke-miterlimit="10"/>
<path d="M102.29 26.6591L63.8101 3.53906" stroke="black" stroke-width="0.3" stroke-miterlimit="10"/>
<path d="M43.3901 65.9305V16.3105" stroke="black" stroke-width="0.3" stroke-miterlimit="10"/>
<path d="M69.8301 55.4594V22.4395L83.7401 30.6895V49.4795L69.8301 55.4594Z" fill="#292669"/>
<path d="M69.8299 23.2406L82.8299 31.0706V49.0706L69.8299 54.7506L56.8299 49.0706V31.0706L69.8299 23.2406ZM69.8299 21.8906L55.6299 30.4206V49.8306L69.8299 56.0006L83.9999 49.8306V30.4206L69.7999 21.8906H69.8299Z" fill="black"/>
<path d="M65.25 57.9998L88.61 47.8398" stroke="black" stroke-width="0.2" stroke-miterlimit="10"/>
<path d="M74.4098 57.9998L51.0498 47.8398" stroke="black" stroke-width="0.2" stroke-miterlimit="10"/>
<path d="M52.3999 32.3592L73.0599 19.9492" stroke="black" stroke-width="0.2" stroke-miterlimit="10"/>
<path d="M87.2601 32.3592L66.6001 19.9492" stroke="black" stroke-width="0.2" stroke-miterlimit="10"/>
<path d="M55.6299 53.4508V26.8008" stroke="black" stroke-width="0.2" stroke-miterlimit="10"/>
<path d="M69.8301 55.4594V22.8594" stroke="black" stroke-width="0.32" stroke-miterlimit="10"/>
<path d="M66.8999 54.4599V23.9199" stroke="black" stroke-width="0.8" stroke-miterlimit="10"/>
<path d="M63.6699 53.0801V25.8301" stroke="black" stroke-width="0.8" stroke-miterlimit="10"/>
<path d="M60.4702 51.7107V27.7207" stroke="black" stroke-width="0.8" stroke-miterlimit="10"/>
<path d="M58.2998 50.7794V29.1094" stroke="black" stroke-width="0.8" stroke-miterlimit="10"/>
<path d="M84.0298 53.4508V26.8008" stroke="black" stroke-width="0.2" stroke-miterlimit="10"/>
<path d="M29.11 51.3796C28.5922 53.1156 27.7914 54.7543 26.74 56.2296C25.719 57.6551 24.3981 58.8395 22.87 59.6996C21.2068 60.6054 19.3331 61.054 17.44 60.9996C15.0785 61.0815 12.7502 60.4242 10.78 59.1196C9.00388 57.8722 7.54206 56.2289 6.51004 54.3196C5.42176 52.293 4.65272 50.1107 4.23004 47.8496C3.78178 45.607 3.55071 43.3265 3.54004 41.0396C3.54543 39.4991 3.63556 37.9601 3.81004 36.4296C3.98545 34.8182 4.27282 33.221 4.67004 31.6496C5.06488 30.1082 5.61433 28.6106 6.31004 27.1796C6.97018 25.8087 7.83695 24.5473 8.88004 23.4396C9.90588 22.3576 11.1319 21.4848 12.49 20.8696C14.0157 20.2371 15.6596 19.9404 17.31 19.9996C19.3306 19.9328 21.3305 20.4241 23.09 21.4196C24.6399 22.3374 25.9573 23.6001 26.94 25.1096C27.9561 26.6984 28.7091 28.4408 29.17 30.2696C29.6719 32.1435 29.9835 34.0632 30.1 35.9996L21.43 36.6196C21.4217 35.8577 21.375 35.0967 21.29 34.3396C21.2102 33.4868 21.0254 32.6471 20.74 31.8396C20.4861 31.091 20.0695 30.4079 19.52 29.8396C19.245 29.5592 18.9142 29.3395 18.5491 29.1949C18.1839 29.0502 17.7925 28.9837 17.4 28.9996C17.0622 28.9879 16.7254 29.0439 16.4095 29.1641C16.0935 29.2843 15.8047 29.4663 15.56 29.6996C15.0431 30.2322 14.6294 30.8561 14.34 31.5396C14.0016 32.3594 13.7567 33.2148 13.61 34.0896C13.45 35.0296 13.33 35.9596 13.26 36.8796C13.19 37.7996 13.14 38.6496 13.13 39.4396C13.12 40.2296 13.13 40.8896 13.13 41.4396C13.13 42.2096 13.13 43.1696 13.19 44.3396C13.2368 45.4966 13.4009 46.6458 13.68 47.7696C13.9286 48.8001 14.3771 49.7718 15 50.6296C15.2934 51.0184 15.6771 51.33 16.1179 51.5373C16.5587 51.7447 17.0434 51.8415 17.53 51.8196C18.2546 51.8485 18.965 51.614 19.53 51.1596C20.0677 50.7063 20.4981 50.1394 20.79 49.4996C21.1047 48.817 21.3202 48.0931 21.43 47.3496C21.5406 46.6607 21.614 45.9664 21.65 45.2696L30.15 45.9396C30.0156 47.7871 29.6666 49.6127 29.11 51.3796Z" fill="black"/>
<path d="M126.75 60.3604L122.22 45.2704H119V60.3604H110.41V20.6504H124.31C128.203 20.6504 131.143 21.7071 133.13 23.8204C135.13 25.9304 136.13 28.8204 136.13 32.5604C136.166 34.739 135.654 36.8916 134.64 38.8204C133.559 40.7518 131.959 42.3419 130.02 43.4104L136.27 60.4104L126.75 60.3604ZM126.08 30.1604C124.837 29.4883 123.431 29.1766 122.02 29.2604H119.02V37.8504H121.49C122.996 37.9199 124.489 37.5518 125.79 36.7904C126.348 36.4101 126.795 35.8883 127.085 35.2786C127.375 34.6689 127.497 33.9931 127.44 33.3204C127.51 32.7207 127.421 32.1133 127.182 31.5588C126.943 31.0043 126.564 30.5221 126.08 30.1604Z" fill="black"/>
<path d="M158.83 30.3304H152.38V60.3304H144.86V30.3304H138.4V20.6504H158.83V30.3304Z" fill="black"/>
<path d="M162.05 60.3604V20.6504H183.55V29.2504H170.65V35.7404H180.77V44.3404H170.65V51.8704H183.55V60.4004L162.05 60.3604Z" fill="black"/>
<path d="M203.5 60.4504L198.07 47.8804L192.63 60.4504H184.38L193.83 39.8704L184.76 20.6504H194.76L199.64 32.1204L204.56 20.6504H212.64L204.1 39.1104L213.94 60.4504H203.5Z" fill="black"/>
</g>
<defs>
<clipPath id="clip0_554_24747">
<rect width="217.48" height="77.95" fill="white"/>
</clipPath>
</defs>
</svg>
