<svg xmlns="http://www.w3.org/2000/svg" viewBox="0 0 217.48 77.95"><defs><style>.cls-1,.cls-4,.cls-5,.cls-6,.cls-7{fill:none;}.cls-1,.cls-4,.cls-5,.cls-6{stroke:#231f20;stroke-miterlimit:10;}.cls-1{stroke-width:0.3px;}.cls-2{fill:#231f20;}.cls-3{fill:#292669;}.cls-4{stroke-width:0.2px;}.cls-5{stroke-width:0.32px;}.cls-6{stroke-width:0.8px;}</style></defs><title>Asset 2cortex</title><g id="Layer_2" data-name="Layer 2"><g id="Layer_1-2" data-name="Layer 1"><line class="cls-1" x1="96.27" y1="65.93" x2="96.27" y2="16.31"/><path class="cls-2" d="M69.83,9.67,94.12,24.26V57.78L69.83,68.35,45.54,57.78V24.26L69.83,9.67m0-2.51L43.39,23V59.19L69.83,70.7,96.27,59.19V23L69.83,7.16Z"/><line class="cls-1" x1="61.3" y1="74.41" x2="104.81" y2="55.48"/><line class="cls-1" x1="78.36" y1="74.41" x2="34.86" y2="55.48"/><line class="cls-1" x1="37.37" y1="26.66" x2="75.85" y2="3.54"/><line class="cls-1" x1="102.29" y1="26.66" x2="63.81" y2="3.54"/><line class="cls-1" x1="43.39" y1="65.93" x2="43.39" y2="16.31"/><polygon class="cls-3" points="69.83 55.46 69.83 22.44 83.74 30.69 83.74 49.48 69.83 55.46"/><path class="cls-2" d="M69.83,23.24l13,7.83v18l-13,5.68-13-5.68v-18l13-7.83m0-1.35-14.2,8.53V49.83L69.83,56,84,49.83V30.42l-14.2-8.53Z"/><line class="cls-4" x1="65.25" y1="58" x2="88.61" y2="47.84"/><line class="cls-4" x1="74.41" y1="58" x2="51.05" y2="47.84"/><line class="cls-4" x1="52.4" y1="32.36" x2="73.06" y2="19.95"/><line class="cls-4" x1="87.26" y1="32.36" x2="66.6" y2="19.95"/><line class="cls-4" x1="55.63" y1="53.45" x2="55.63" y2="26.8"/><line class="cls-5" x1="69.83" y1="55.46" x2="69.83" y2="22.86"/><line class="cls-6" x1="66.9" y1="54.46" x2="66.9" y2="23.92"/><line class="cls-6" x1="63.67" y1="53.08" x2="63.67" y2="25.83"/><line class="cls-6" x1="60.47" y1="51.71" x2="60.47" y2="27.72"/><line class="cls-6" x1="58.3" y1="50.78" x2="58.3" y2="29.11"/><line class="cls-4" x1="84.03" y1="53.45" x2="84.03" y2="26.8"/><path class="cls-2" d="M29.11,51.38a16.47,16.47,0,0,1-2.37,4.85,12,12,0,0,1-3.87,3.47A10.71,10.71,0,0,1,17.44,61a11.35,11.35,0,0,1-6.66-1.88,14,14,0,0,1-4.27-4.8,22.36,22.36,0,0,1-2.28-6.47,35.59,35.59,0,0,1-.69-6.81,42,42,0,0,1,.27-4.61,34.93,34.93,0,0,1,.86-4.78,23.64,23.64,0,0,1,1.64-4.47,14.86,14.86,0,0,1,2.57-3.74,11.53,11.53,0,0,1,3.61-2.57A11.51,11.51,0,0,1,17.31,20a11,11,0,0,1,5.78,1.42,11.72,11.72,0,0,1,3.85,3.69,17.53,17.53,0,0,1,2.23,5.16A28.85,28.85,0,0,1,30.1,36l-8.67.62a22.67,22.67,0,0,0-.14-2.28,10.42,10.42,0,0,0-.55-2.5,5.35,5.35,0,0,0-1.22-2A2.81,2.81,0,0,0,17.4,29a2.54,2.54,0,0,0-1.84.7,6,6,0,0,0-1.22,1.84,11.79,11.79,0,0,0-.73,2.55c-.16.94-.28,1.87-.35,2.79s-.12,1.77-.13,2.56,0,1.45,0,2c0,.77,0,1.73.06,2.9a17.09,17.09,0,0,0,.49,3.43A8.1,8.1,0,0,0,15,50.63a3,3,0,0,0,2.53,1.19,3,3,0,0,0,2-.66,4.75,4.75,0,0,0,1.26-1.66,7.89,7.89,0,0,0,.64-2.15,19.46,19.46,0,0,0,.22-2.08l8.5.67A23.87,23.87,0,0,1,29.11,51.38Z"/><path class="cls-2" d="M126.75,60.36l-4.53-15.09H119V60.36h-8.59V20.65h13.9q5.84,0,8.82,3.17c2,2.11,3,5,3,8.74a13,13,0,0,1-1.49,6.26,11.85,11.85,0,0,1-4.62,4.59l6.25,17Zm-.67-30.2a7.59,7.59,0,0,0-4.06-.9h-3v8.59h2.47a7.8,7.8,0,0,0,4.3-1.06,3.81,3.81,0,0,0,1.65-3.47A3.45,3.45,0,0,0,126.08,30.16Z"/><path class="cls-2" d="M158.83,30.33h-6.45v30h-7.52v-30H138.4V20.65h20.43Z"/><path class="cls-2" d="M162.05,60.36V20.65h21.5v8.6h-12.9v6.49l10.12,0v8.6H170.65v7.53h12.9v8.53Z"/><path class="cls-2" d="M203.5,60.45l-5.43-12.57-5.44,12.57h-8.25l9.45-20.58-9.07-19.22h10l4.88,11.47,4.92-11.47h8.08L204.1,39.11l9.84,21.34Z"/><rect class="cls-7" width="217.48" height="77.95"/></g></g></svg>