<svg xmlns="http://www.w3.org/2000/svg" viewBox="0 0 895.97 895.97"><defs><style>.cls-1{fill:none;}.cls-2{fill:#7fac32;}</style></defs><title>Asset 1jo</title><g id="Layer_2" data-name="Layer 2"><g id="Layer_1-2" data-name="Layer 1"><rect class="cls-1" width="895.97" height="895.97"/><path class="cls-2" d="M404.46,187.86C441.1,149.18,489,122.2,541.44,124c0-21.32-18.51-38.6-49.91-38.6-67.28,0-110.46,51.68-110.46,76.13C381.07,171.9,397.61,187.86,404.46,187.86Z"/><path class="cls-2" d="M539.74,139.39c-37.36,0-129.15,54.08-125.7,77.31,1.59,9.39,5.36,11.2,10.38,11.2,16.68,0,31.93,1.25,31.93,10.38l.85,110.41a3.61,3.61,0,0,0,5.28,3.18l100.63-52.24a3.61,3.61,0,0,0,1.95-3.21V167.69C565.06,154.79,559.23,139.39,539.74,139.39Z"/><path class="cls-2" d="M565,43.37a21.06,21.06,0,1,1-21.06,21.06A21.09,21.09,0,0,1,565,43.37m0-3A24.06,24.06,0,1,0,589,64.43,24.06,24.06,0,0,0,565,40.37Z"/><path class="cls-2" d="M555.25,76.79V52.69H565.5c5.56,0,8.94,2.69,8.94,7,0,3.47-2.08,5.89-5.61,6.73l5.88,10.41h-3.07l-5.61-10h-8v10ZM558,64h7.56c3.8,0,6-1.25,6-4.31s-2.34-4.27-6.1-4.27H558Z"/><path class="cls-2" d="M574.89,422.37l44-23.93a7.42,7.42,0,0,1,7,0c13.19,7.42,31.54,10.4,33.11,0,2.3-19.05,3.15-130.88-34.6-112.16-59,27.28-131.55,67.48-208.82,112.16C352.79,439.73,236,501.77,236,665.35c0,96.23,61.44,189.27,189.27,189.27,101.28,0,152.43-85.44,152.43-133.4C541,778,502,802.41,438.42,802.41c-56.72,0-94.85-22.68-94.85-100.72,0-93.71,49.87-177.79,118.21-212.62V611.39c0,75.23-30.38,122.64-68.51,122.64,8.51,8.51,26.13,19,51.58,19,40.1-2.39,144.51-15.32,136.68-250.47-.66-29.76-1.15-51.7-7.66-75.24C573.07,424.63,573.6,423.15,574.89,422.37Z"/></g></g></svg>