<svg width="545" height="101" viewBox="0 0 545 101" fill="none" xmlns="http://www.w3.org/2000/svg">
<g clip-path="url(#clip0_339_38188)">
<path d="M101.017 50.4894C101.017 52.1953 100.934 53.8798 100.768 55.5429C99.5129 68.0076 93.6715 79.5614 84.3776 87.9613C75.0837 96.3613 63.0003 101.008 50.473 101C22.7259 100.979 0.0213823 78.2732 0 50.525C-1.22168e-05 39.0204 3.92609 27.8603 11.1291 18.8899C18.3322 9.91957 28.3808 3.67615 39.6136 1.19198C50.8463 -1.29219 62.5905 0.13167 72.9043 5.22813C83.218 10.3246 91.4837 18.7884 96.3346 29.2202C96.5138 29.6056 96.593 30.0299 96.5647 30.454C96.5364 30.878 96.4016 31.2881 96.1728 31.6462C95.944 32.0044 95.6286 32.299 95.2557 32.5029C94.8828 32.7067 94.4645 32.8133 94.0396 32.8126H88.3982C87.9403 32.8124 87.4911 32.6876 87.0987 32.4515C86.7063 32.2154 86.3856 31.877 86.1709 31.4726C81.9159 23.4926 75.1072 17.1705 66.8344 13.5181C58.5615 9.8656 49.3026 9.09381 40.5392 11.3262C31.7758 13.5586 24.0145 18.6662 18.4972 25.8316C12.9799 32.997 10.0255 41.8061 10.1067 50.8493C10.2992 72.7849 28.2247 90.7111 50.1594 90.9C59.5296 90.9793 68.6363 87.8007 75.9221 81.9078C83.2079 76.0148 88.2201 67.7736 90.1017 58.5936C90.1789 58.2257 90.1733 57.8453 90.0852 57.4798C89.997 57.1144 89.8286 56.7733 89.592 56.4811C89.3555 56.1889 89.0569 55.9532 88.7179 55.7909C88.3788 55.6286 88.0079 55.5439 87.632 55.5429H76.7555C74.9757 55.5496 73.2289 56.0235 71.6898 56.9172C70.1506 57.8109 68.8732 59.0932 67.9852 60.6357C65.7506 64.4832 62.3084 67.4854 58.1929 69.1763C54.0775 70.8672 49.519 71.1522 45.225 69.9871C40.931 68.8219 37.1417 66.2718 34.4453 62.7326C31.7489 59.1933 30.2962 54.8629 30.3127 50.4135C30.3293 45.9641 31.814 41.6447 34.5366 38.1255C37.2592 34.6064 41.0673 32.0845 45.3699 30.9513C49.6724 29.818 54.2286 30.1369 58.3314 31.8583C62.4342 33.5797 65.854 36.6073 68.06 40.4713C68.9431 41.9923 70.2124 43.2528 71.7394 44.1252C73.2664 44.9977 74.9969 45.451 76.7555 45.4394H98.4229C99.0708 45.4394 99.6939 45.6884 100.163 46.1347C100.633 46.5811 100.913 47.1908 100.946 47.8378C100.994 48.7146 101.017 49.5984 101.017 50.4894Z" fill="#2E587D"/>
<path d="M129.474 38.2012C131.547 34.6222 134.554 31.6743 138.173 29.6728C141.852 27.6232 146 26.5657 150.211 26.6044C155.2 26.6044 159.64 27.8291 163.529 30.2787C167.417 32.7291 170.392 36.391 171.993 40.6994H162.756C161.681 38.377 159.913 36.4447 157.695 35.1683C155.402 33.9188 152.822 33.291 150.211 33.3472C147.309 33.2978 144.446 34.0197 141.915 35.4392C139.472 36.8439 137.491 38.9292 136.213 41.4407C134.84 44.0542 134.153 47.0883 134.153 50.5428C134.153 53.9974 134.84 57.0326 136.213 59.6485C137.496 62.1647 139.475 64.2591 141.915 65.6821C144.438 67.1286 147.304 67.8674 150.211 67.8204C152.822 67.8743 155.401 67.2466 157.695 65.9993C159.912 64.722 161.68 62.7899 162.756 60.4682H171.993C170.239 64.9658 167.418 68.4275 163.529 70.8533C159.64 73.2791 155.2 74.4932 150.211 74.4955C145.989 74.5418 141.828 73.484 138.141 71.4271C134.535 69.4175 131.54 66.4693 129.474 62.8952C127.336 59.2529 126.267 55.139 126.267 50.5535C126.267 45.968 127.336 41.8506 129.474 38.2012Z" fill="#2E587D"/>
<path d="M186.626 24.1738V74.0679H178.946V24.1738H186.626Z" fill="#2E587D"/>
<path d="M201.326 72.2931C198.514 70.7146 196.201 68.3784 194.651 65.5503C193.033 62.6493 192.224 59.2886 192.224 55.4681C192.224 51.6904 193.056 48.3404 194.719 45.418C196.306 42.5716 198.667 40.2335 201.529 38.6752C204.507 37.1253 207.815 36.3161 211.173 36.3161C214.53 36.3161 217.838 37.1253 220.816 38.6752C223.677 40.2346 226.038 42.5724 227.626 45.418C229.289 48.3404 230.121 51.6904 230.121 55.4681C230.121 59.2458 229.267 62.5946 227.559 65.5146C225.909 68.3774 223.492 70.7226 220.581 72.286C217.586 73.8947 214.233 74.7186 210.834 74.6809C207.511 74.7293 204.232 73.906 201.326 72.2931ZM216.401 66.5909C218.177 65.5997 219.637 64.1272 220.613 62.3428C221.694 60.4421 222.233 58.1493 222.231 55.4645C222.229 52.7798 221.712 50.4977 220.681 48.6184C219.74 46.8492 218.313 45.3862 216.568 44.4023C214.878 43.4595 212.973 42.9686 211.037 42.9768C209.113 42.9651 207.218 43.4565 205.542 44.4023C203.82 45.3841 202.425 46.8502 201.529 48.6184C200.539 50.4858 200.044 52.7679 200.047 55.4645C200.047 59.4679 201.07 62.5566 203.115 64.7306C204.094 65.7945 205.289 66.6367 206.621 67.2003C207.952 67.764 209.389 68.0362 210.834 67.9986C212.779 68.0109 214.694 67.5277 216.401 66.5945V66.5909Z" fill="#2E587D"/>
<path d="M269.368 36.9218V74.0786H261.681V69.695C260.413 71.2662 258.781 72.5052 256.927 73.3052C254.966 74.1831 252.839 74.6315 250.691 74.6203C247.962 74.6649 245.264 74.0396 242.833 72.7992C240.515 71.5844 238.613 69.7056 237.369 67.4035C236.044 65.0276 235.381 62.1503 235.381 58.7718V36.9218H243V57.6242C243 60.9505 243.832 63.5022 245.495 65.2794C247.158 67.0566 249.428 67.944 252.305 67.9416C255.18 67.9416 257.461 67.0542 259.147 65.2794C260.834 63.5046 261.678 60.9529 261.678 57.6242V36.9218H269.368Z" fill="#2E587D"/>
<path d="M277.222 45.418C278.675 42.6348 280.873 40.3099 283.57 38.7027C286.267 37.0955 289.357 36.2692 292.497 36.3159C294.977 36.3272 297.426 36.8666 299.681 37.8983C301.871 38.828 303.803 40.2746 305.312 42.1143V24.1738H313.066V74.0679H305.312V68.4727C303.954 70.3563 302.16 71.8835 300.084 72.9239C297.716 74.1267 295.088 74.7288 292.432 74.6773C289.303 74.7082 286.228 73.8545 283.562 72.2147C280.861 70.5434 278.669 68.1648 277.222 65.3364C275.637 62.24 274.839 58.8004 274.899 55.322C274.899 51.5989 275.673 48.2976 277.222 45.418ZM303.726 48.7894C302.764 46.9982 301.329 45.5054 299.578 44.4736C297.902 43.4945 295.995 42.9825 294.054 42.991C292.075 42.9741 290.129 43.4959 288.424 44.5004C286.719 45.5048 285.319 46.9542 284.375 48.6932C283.32 50.5607 282.793 52.775 282.793 55.3363C282.741 57.6816 283.285 60.0017 284.375 62.0791C285.334 63.9104 286.783 65.44 288.559 66.4983C290.227 67.4844 292.128 68.0073 294.066 68.013C296.003 68.0186 297.907 67.5068 299.581 66.5303C301.341 65.4925 302.777 63.9859 303.729 62.1789C304.823 60.1155 305.369 57.8062 305.315 55.4717C305.371 53.1444 304.824 50.8423 303.726 48.7894Z" fill="#2E587D"/>
<path d="M355.079 40.6994C353.964 38.4655 352.202 36.6198 350.022 35.4035C347.72 34.18 345.144 33.5665 342.538 33.6216C339.637 33.5699 336.775 34.2907 334.245 35.71C331.815 37.1008 329.836 39.1605 328.543 41.6439C327.17 44.2098 326.485 47.1797 326.487 50.5535C326.489 53.9273 327.175 56.9067 328.543 59.4917C329.829 61.9885 331.809 64.0603 334.245 65.4576C336.775 66.878 339.637 67.6001 342.538 67.5496C346.719 67.5496 350.113 66.3806 352.719 64.0427C355.326 61.7048 356.922 58.5354 357.509 54.5343H339.908V48.3867H365.738V54.3882C364.989 59.9922 362.217 65.1289 357.944 68.8306C353.671 72.5323 348.191 74.5433 342.538 74.4849C338.316 74.5311 334.155 73.4733 330.468 71.4164C326.862 69.4068 323.867 66.4586 321.801 62.8845C319.662 59.2422 318.593 55.1283 318.593 50.5428C318.593 45.9573 319.662 41.8434 321.801 38.2012C323.873 34.6222 326.88 31.6743 330.5 29.6728C334.178 27.6232 338.327 26.5657 342.538 26.6044C347.527 26.6044 351.966 27.8291 355.856 30.2787C359.744 32.7291 362.718 36.391 364.319 40.6994H355.079Z" fill="#2E587D"/>
<path d="M378.949 24.1738V74.0679H371.262V24.1738H378.949Z" fill="#2E587D"/>
<path d="M386.807 45.418C388.255 42.6449 390.441 40.3266 393.125 38.72C395.809 37.1135 398.886 36.2814 402.014 36.3159C404.936 36.3159 407.488 36.8885 409.669 38.0337C411.702 39.0595 413.486 40.5194 414.893 42.3103V36.9218H422.648V74.0786H414.893V68.5511C413.475 70.3996 411.652 71.8991 409.565 72.9346C406.981 74.1985 404.122 74.7954 401.248 74.6709C398.374 74.5464 395.577 73.7044 393.111 72.2218C390.425 70.5433 388.246 68.1657 386.807 65.3436C385.22 62.2474 384.421 58.8078 384.48 55.3291C384.48 51.6013 385.256 48.2976 386.807 45.418ZM413.307 48.7894C412.346 46.9992 410.912 45.5066 409.162 44.4736C407.484 43.4944 405.574 42.9825 403.632 42.991C401.693 42.9808 399.785 43.481 398.101 44.4415C396.354 45.4483 394.919 46.9185 393.956 48.6896C392.899 50.5571 392.37 52.7715 392.37 55.3327C392.318 57.6785 392.863 59.9991 393.956 62.0755C394.913 63.9073 396.361 65.4372 398.136 66.4947C399.798 67.4856 401.697 68.009 403.632 68.0094C405.575 68.0196 407.485 67.5076 409.162 66.5268C410.92 65.4871 412.354 63.9809 413.307 62.1753C414.402 60.1126 414.948 57.8029 414.893 55.4681C414.951 53.1422 414.405 50.841 413.307 48.7894Z" fill="#2E587D"/>
<path d="M457.344 38.1334C459.655 39.3449 461.547 41.2254 462.772 43.5291C464.076 45.905 464.728 48.7822 464.728 52.1608V74.0786H457.109V53.3084C457.109 49.9821 456.277 47.4304 454.614 45.6532C452.951 43.876 450.68 42.9886 447.801 42.991C444.923 42.991 442.643 43.8784 440.958 45.6532C439.274 47.428 438.43 49.9797 438.428 53.3084V74.0786H430.741V36.9217H438.428V41.1698C439.728 39.6147 441.381 38.3928 443.25 37.606C445.217 36.7512 447.341 36.3155 449.486 36.3266C452.214 36.2778 454.912 36.8982 457.344 38.1334Z" fill="#2E587D"/>
<path d="M472.241 45.3859C473.701 42.579 475.936 40.2499 478.68 38.6752C481.422 37.0999 484.569 36.3135 488.121 36.3159C492.616 36.3159 496.336 37.3851 499.282 39.5234C502.228 41.6617 504.217 44.7076 505.248 48.6611H496.955C496.356 46.9189 495.224 45.4091 493.719 44.3453C492.23 43.3094 490.366 42.7914 488.128 42.7914C484.982 42.7914 482.476 43.9045 480.608 46.1308C478.741 48.357 477.808 51.4706 477.811 55.4717C477.811 59.4751 478.743 62.5994 480.608 64.8446C482.473 67.0899 484.98 68.2137 488.128 68.216C492.58 68.216 495.525 66.2607 496.962 62.3499H505.255C504.302 65.9451 502.168 69.1156 499.197 71.3522C496.232 73.5761 492.549 74.6892 488.149 74.6916C484.585 74.6916 481.439 73.8933 478.709 72.2967C475.957 70.7059 473.714 68.3663 472.241 65.5503C470.687 62.6493 469.911 59.2886 469.914 55.4681C469.916 51.6476 470.692 48.2869 472.241 45.3859Z" fill="#2E587D"/>
<path d="M544.705 58.3655H516.317C516.54 61.3354 517.641 63.7185 519.62 65.5146C521.599 67.3108 524.026 68.2101 526.901 68.2125C531.037 68.2125 533.96 66.4816 535.668 63.0199H543.964C542.872 66.3957 540.734 69.3363 537.859 71.4164C534.916 73.5975 531.263 74.688 526.901 74.688C523.566 74.7426 520.275 73.9165 517.361 72.2931C514.566 70.7129 512.275 68.3756 510.75 65.5503C509.154 62.6493 508.357 59.2886 508.359 55.4681C508.361 51.6477 509.137 48.2869 510.686 45.3859C512.165 42.5596 514.438 40.2271 517.225 38.6752C520.034 37.1 523.259 36.3135 526.901 36.3159C530.172 36.2569 533.402 37.0464 536.277 38.6075C538.986 40.0983 541.212 42.3328 542.692 45.0474C544.219 47.8129 544.984 50.9943 544.987 54.5914C544.992 55.8549 544.898 57.1168 544.705 58.3655ZM536.951 52.1608C536.906 49.3311 535.893 47.061 533.914 45.3503C531.935 43.6397 529.486 42.7867 526.566 42.7915C524.057 42.7377 521.621 43.6426 519.756 45.3218C517.867 47.0063 516.742 49.2872 516.381 52.1644L536.951 52.1608Z" fill="#2E587D"/>
</g>
<defs>
<clipPath id="clip0_339_38188">
<rect width="545" height="101" fill="white"/>
</clipPath>
</defs>
</svg>
