<svg xmlns="http://www.w3.org/2000/svg" viewBox="0 0 396 324"><defs><style>.cls-1{fill:#024d8c;}.cls-2{fill:#027fbb;}.cls-3{fill:none;}</style></defs><title>Asset 2jo</title><g id="Layer_2" data-name="Layer 2"><g id="Layer_1-2" data-name="Layer 1"><path class="cls-1" d="M257,70.26h-44a18.29,18.29,0,0,0-15.83,9.11l-83.51,144a26.66,26.66,0,0,1-23.06,13.29H51.76l113.09-195a29.91,29.91,0,0,1,25.87-14.91H233.6Z"/><path class="cls-2" d="M289.46,130.46H248.11a21.39,21.39,0,0,0-18.49,10.65l-1.5,2.59L147.79,282.23a30.17,30.17,0,0,1-26.1,15H19.87a1.88,1.88,0,0,1-1.65-2.76l21-36.17a8.45,8.45,0,0,1,7.31-4.22h48a27,27,0,0,0,23.39-13.47l2.31-4L198,102.55a29.77,29.77,0,0,1,25.76-14.84h42.71Z"/><path class="cls-1" d="M376.13,297.27H224.81a1.91,1.91,0,0,1-1.64-2.87l28.93-48.89a4.35,4.35,0,0,1,3.74-2.14h39.62a2.27,2.27,0,0,0,2-3.35l-23.35-43.37a2.1,2.1,0,0,0-3.66-.07l-27.7,46.79L212.63,294.3a6.06,6.06,0,0,1-5.21,3H159.13l82.19-141.73a23.73,23.73,0,0,1,20.54-11.84h34.72l81.19,150.81A1.87,1.87,0,0,1,376.13,297.27Z"/><rect class="cls-3" width="396" height="324"/></g></g></svg>