<?xml version="1.0" encoding="UTF-8" standalone="no"?>
<!-- Created with Inkscape (http://www.inkscape.org/) -->

<svg
   xmlns:dc="http://purl.org/dc/elements/1.1/"
   xmlns:cc="http://creativecommons.org/ns#"
   xmlns:rdf="http://www.w3.org/1999/02/22-rdf-syntax-ns#"
   xmlns:svg="http://www.w3.org/2000/svg"
   xmlns="http://www.w3.org/2000/svg"
   version="1.1"
   width="159.09"
   height="92.360001"
   id="svg2"
   xml:space="preserve"><metadata
     id="metadata8"><rdf:RDF><cc:Work
         rdf:about=""><dc:format>image/svg+xml</dc:format><dc:type
           rdf:resource="http://purl.org/dc/dcmitype/StillImage" /><dc:title></dc:title></cc:Work></rdf:RDF></metadata><defs
     id="defs6"><clipPath
       id="clipPath18"><path
         d="m 0,841.89 595.276,0 L 595.276,0 0,0 0,841.89 z"
         id="path20" /></clipPath><clipPath
       id="clipPath116"><path
         d="m 0,841.89 595.276,0 L 595.276,0 0,0 0,841.89 z"
         id="path118" /></clipPath><clipPath
       id="clipPath132"><path
         d="m 0,0 595.276,0 0,841.89 L 0,841.89 0,0 z"
         id="path134" /></clipPath></defs><g
     transform="matrix(1.25,0,0,-1.25,0,92.360109)"
     id="g10"><g
       transform="matrix(1.9305224,0,0,2.4324203,-942.15911,-1936.1538)"
       id="g12"><g
         id="g14"><g
           clip-path="url(#clipPath18)"
           id="g16"><g
             transform="translate(507.5442,821.1639)"
             id="g22"><path
               d="m 0,0 -5.171,0 0,4.542 4.347,0 0,-0.884 -2.208,0 0,-0.778 1.657,0 0,-0.88 -1.657,0 0,-1.116 L 0,0.884 0,0 z"
               id="path24"
               style="fill:#000000;fill-opacity:1;fill-rule:nonzero;stroke:none" /></g><g
             transform="translate(523.9524,822.5867)"
             id="g26"><path
               d="m 0,0 c 0,-0.449 -0.284,-0.815 -0.848,-1.095 -0.567,-0.282 -1.333,-0.42 -2.303,-0.42 -0.563,0 -1.051,0.031 -1.469,0.099 -0.417,0.064 -0.81,0.148 -1.173,0.251 l 0,1.084 0.191,0 c 0.362,-0.192 0.764,-0.34 1.208,-0.445 0.446,-0.103 0.878,-0.153 1.289,-0.153 0.104,0 0.246,0.006 0.417,0.015 0.171,0.015 0.316,0.035 0.418,0.064 0.135,0.038 0.249,0.081 0.335,0.143 0.087,0.054 0.126,0.136 0.126,0.246 0,0.1 -0.062,0.187 -0.189,0.26 -0.123,0.071 -0.31,0.124 -0.553,0.167 -0.251,0.04 -0.519,0.08 -0.805,0.116 -0.286,0.032 -0.55,0.08 -0.795,0.135 -0.571,0.124 -0.98,0.289 -1.23,0.507 -0.251,0.213 -0.377,0.479 -0.377,0.795 0,0.423 0.284,0.773 0.852,1.038 0.565,0.27 1.294,0.402 2.184,0.402 0.451,0 0.892,-0.028 1.324,-0.085 0.439,-0.058 0.541,-0.13 0.653,-0.24 l 0,-1.048 0.021,0.021 c -0.274,0.152 -0.334,0.276 -0.73,0.378 -0.394,0.103 -0.801,0.152 -1.212,0.152 -0.147,0 -0.291,-0.008 -0.435,-0.022 C -3.248,2.352 -3.385,2.324 -3.516,2.288 -3.637,2.257 -3.737,2.209 -3.823,2.144 -3.906,2.079 -3.949,2.005 -3.949,1.924 -3.949,1.802 -3.882,1.711 -3.744,1.65 -3.609,1.584 -3.352,1.524 -2.973,1.47 -2.722,1.435 -2.484,1.403 -2.255,1.369 -2.027,1.338 -1.779,1.293 -1.519,1.235 -1,1.12 -0.617,0.965 -0.369,0.767 -0.124,0.569 0,0.313 0,0"
               id="path28"
               style="fill:#000000;fill-opacity:1;fill-rule:nonzero;stroke:none" /></g><g
             transform="translate(530.6965,824.2185)"
             id="g30"><path
               d="M 0,0 C 0,0.128 -0.054,0.235 -0.158,0.328 -0.266,0.422 -0.385,0.488 -0.526,0.525 -0.711,0.573 -0.893,0.598 -1.067,0.608 -1.246,0.61 -1.48,0.614 -1.774,0.614 l -0.033,0 0,-1.359 0.239,0 c 0.302,0 0.551,0.009 0.749,0.035 0.194,0.025 0.362,0.072 0.496,0.15 0.112,0.062 0.192,0.139 0.245,0.231 C -0.025,-0.239 0,-0.131 0,0 M 2.123,0.031 C 2.123,-0.175 2.068,-0.375 1.959,-0.571 1.851,-0.769 1.698,-0.933 1.495,-1.069 1.223,-1.246 0.914,-1.386 0.57,-1.481 0.231,-1.569 -0.191,-1.617 -0.696,-1.617 l -1.111,0 0,-1.505 -1.793,0 0,4.609 2.941,0 c 0.442,0 0.813,-0.028 1.12,-0.078 C 0.762,1.359 1.026,1.281 1.26,1.182 1.541,1.058 1.752,0.902 1.903,0.714 2.048,0.525 2.123,0.298 2.123,0.031"
               id="path32"
               style="fill:#000000;fill-opacity:1;fill-rule:nonzero;stroke:none" /></g><g
             transform="translate(496.47,821.1248)"
             id="g34"><path
               d="m 0,0 c 0,0 -1.348,-0.15 -2.279,2.26 l -0.983,-2.306 -1.224,0 c 0,0 -1.117,0.007 -2.088,2.492 0,0 -0.708,1.705 -1.494,2.101 l 2.837,0 1.309,-2.917 1.041,2.11 c 0,0 0.192,0.595 -0.371,0.781 l 2.231,0 1.615,-3.003 1.008,2.335 c 0,0 0.24,0.391 -0.177,0.638 L 3.395,4.559 1.34,0.033 0,0 z"
               id="path36"
               style="fill:#000000;fill-opacity:1;fill-rule:nonzero;stroke:none" /></g><g
             transform="translate(512.6917,822.0476)"
             id="g38"><path
               d="m 0,0 0,2.447 c 0.031,1.012 0.673,1.216 0.673,1.216 l -1.504,0 0,-0.005 -0.496,0 0,0.005 -1.497,0 c 0,0 0.639,-0.204 0.667,-1.216 l 0,-2.449 c 0,0 0,-0.664 -0.655,-0.882 l 1.415,0 0.64,0 1.415,0 -0.003,0 2.052,0 c 0,0 0.173,0.101 0.36,0.349 C 3.2,-0.362 3.302,0 3.302,0 L 0,0 z"
               id="path40"
               style="fill:#000000;fill-opacity:1;fill-rule:nonzero;stroke:none" /></g><g
             transform="translate(553.6282,825.7108)"
             id="g42"><path
               d="m 0,0 -2.48,0 c 0,0 0.574,-0.185 0.659,-1.07 l 0,-1.699 -0.419,-0.022 -3.232,2.786 -1.216,0 0,0.005 -1.504,0 c 0,0 0.642,-0.204 0.671,-1.216 l 0,-2.449 c 0,0 0,-0.664 -0.658,-0.882 l 2.76,0 c -0.556,0.183 -0.643,0.693 -0.651,0.841 l 0,2.275 3.535,-3.116 1.874,0 0,3.442 C -0.589,-0.19 0,0 0,0"
               id="path44"
               style="fill:#000000;fill-opacity:1;fill-rule:nonzero;stroke:none" /></g><g
             transform="translate(543.3186,825.7108)"
             id="g46"><path
               d="m 0,0 -1.501,0 0,-0.005 -0.311,0 0,0.005 -1.501,0 c 0,0 0.562,-0.181 0.656,-1.029 l 0,-1.813 c 0,-0.329 -0.11,-0.568 -0.34,-0.718 -0.223,-0.148 -0.58,-0.22 -1.068,-0.22 -0.498,0 -0.856,0.078 -1.073,0.231 -0.222,0.155 -0.336,0.389 -0.336,0.707 l 0,1.829 C -5.371,-0.176 -4.815,0 -4.815,0 l -1.502,0 0,-0.005 -0.289,0 0,0.005 -1.501,0 c 0,0 0.631,-0.203 0.669,-1.2 l 0,-1.705 c 0,-0.559 0.288,-0.989 0.855,-1.286 0.564,-0.3 1.406,-0.448 2.518,-0.448 0.529,0 1.001,0.035 1.408,0.101 l 0,-0.155 2.002,0 0,3.701 C -0.544,-0.176 0,0 0,0"
               id="path48"
               style="fill:#000000;fill-opacity:1;fill-rule:nonzero;stroke:none" /></g><g
             transform="translate(502.2581,796.7498)"
             id="g50"><path
               d="m 0,0 0,3.895 1.351,0 C 1.655,3.895 1.889,3.875 2.05,3.838 2.274,3.787 2.466,3.693 2.624,3.56 2.831,3.386 2.985,3.164 3.089,2.895 3.191,2.624 3.243,2.316 3.243,1.969 3.243,1.673 3.208,1.411 3.138,1.183 3.068,0.954 2.979,0.765 2.87,0.615 2.762,0.466 2.643,0.348 2.513,0.263 2.384,0.176 2.229,0.111 2.046,0.066 1.862,0.023 1.651,0 1.415,0 L 0,0 z m 0.519,0.46 0.837,0 c 0.258,0 0.462,0.023 0.61,0.071 C 2.112,0.58 2.229,0.646 2.317,0.733 2.44,0.856 2.536,1.021 2.604,1.226 2.673,1.433 2.708,1.683 2.708,1.977 2.708,2.384 2.64,2.696 2.506,2.915 2.37,3.135 2.207,3.28 2.015,3.354 1.876,3.408 1.651,3.435 1.344,3.435 l -0.825,0 0,-2.975 z"
               id="path52"
               style="fill:#000000;fill-opacity:1;fill-rule:nonzero;stroke:none" /></g><g
             transform="translate(508.0071,797.0984)"
             id="g54"><path
               d="m 0,0 c -0.18,-0.15 -0.351,-0.257 -0.516,-0.319 -0.165,-0.062 -0.341,-0.093 -0.531,-0.093 -0.312,0 -0.551,0.075 -0.719,0.226 -0.168,0.152 -0.252,0.346 -0.252,0.581 0,0.139 0.032,0.265 0.096,0.379 0.063,0.115 0.147,0.205 0.248,0.275 0.104,0.069 0.219,0.121 0.347,0.157 0.095,0.024 0.237,0.049 0.428,0.071 0.388,0.046 0.674,0.101 0.858,0.165 0.002,0.066 0.004,0.107 0.004,0.124 0,0.196 -0.047,0.333 -0.138,0.412 -0.122,0.109 -0.305,0.163 -0.548,0.163 -0.226,0 -0.392,-0.039 -0.502,-0.119 C -1.332,1.943 -1.412,1.804 -1.464,1.603 l -0.47,0.065 c 0.043,0.199 0.114,0.361 0.211,0.484 0.098,0.123 0.241,0.219 0.426,0.284 0.185,0.067 0.399,0.1 0.645,0.1 0.242,0 0.438,-0.028 0.59,-0.085 C 0.09,2.395 0.201,2.323 0.273,2.237 0.344,2.151 0.394,2.043 0.422,1.912 0.437,1.83 0.446,1.684 0.446,1.472 l 0,-0.638 c 0,-0.445 0.01,-0.727 0.031,-0.844 0.021,-0.117 0.062,-0.23 0.122,-0.339 l -0.503,0 C 0.047,-0.25 0.014,-0.134 0,0 M -0.041,1.067 C -0.216,0.996 -0.478,0.936 -0.826,0.887 -1.024,0.858 -1.165,0.827 -1.246,0.791 -1.328,0.756 -1.393,0.704 -1.437,0.636 -1.481,0.567 -1.504,0.492 -1.504,0.409 c 0,-0.128 0.049,-0.234 0.147,-0.319 0.095,-0.085 0.238,-0.127 0.425,-0.127 0.186,0 0.351,0.04 0.495,0.12 0.144,0.081 0.251,0.191 0.319,0.331 0.052,0.107 0.077,0.268 0.077,0.478 l 0,0.175 z"
               id="path56"
               style="fill:#000000;fill-opacity:1;fill-rule:nonzero;stroke:none" /></g><g
             transform="translate(509.1946,796.7498)"
             id="g58"><path
               d="m 0,0 0,2.82 0.434,0 0,-0.427 c 0.109,0.2 0.212,0.333 0.306,0.396 0.092,0.064 0.196,0.096 0.309,0.096 0.162,0 0.326,-0.051 0.494,-0.154 L 1.377,2.287 C 1.26,2.356 1.143,2.391 1.024,2.391 0.918,2.391 0.824,2.359 0.74,2.297 0.656,2.233 0.598,2.146 0.562,2.035 0.508,1.865 0.48,1.68 0.48,1.478 L 0.48,0 0,0 z"
               id="path60"
               style="fill:#000000;fill-opacity:1;fill-rule:nonzero;stroke:none" /></g><g
             transform="translate(512.968,797.659)"
             id="g62"><path
               d="M 0,0 0.498,-0.062 C 0.42,-0.351 0.273,-0.574 0.062,-0.734 -0.15,-0.893 -0.422,-0.973 -0.752,-0.973 c -0.414,0 -0.744,0.127 -0.987,0.381 -0.243,0.254 -0.365,0.611 -0.365,1.07 0,0.474 0.124,0.842 0.369,1.104 0.247,0.263 0.565,0.394 0.958,0.394 0.379,0 0.689,-0.128 0.929,-0.385 0.242,-0.257 0.362,-0.618 0.362,-1.084 0,-0.028 0,-0.071 -0.002,-0.127 l -2.119,0 c 0.017,-0.311 0.106,-0.548 0.265,-0.712 0.158,-0.165 0.356,-0.248 0.594,-0.248 0.176,0 0.326,0.047 0.451,0.139 C -0.172,-0.35 -0.073,-0.203 0,0 m -1.58,0.773 1.586,0 C -0.016,1.01 -0.076,1.188 -0.176,1.307 -0.33,1.49 -0.528,1.582 -0.772,1.582 -0.993,1.582 -1.18,1.509 -1.33,1.362 -1.48,1.216 -1.563,1.019 -1.58,0.773"
               id="path64"
               style="fill:#000000;fill-opacity:1;fill-rule:nonzero;stroke:none" /></g><g
             transform="translate(516.6438,797.1785)"
             id="g66"><path
               d="m 0,0 0.07,-0.423 c -0.135,-0.028 -0.257,-0.043 -0.364,-0.043 -0.175,0 -0.31,0.028 -0.407,0.083 -0.096,0.055 -0.163,0.127 -0.203,0.217 -0.039,0.089 -0.059,0.277 -0.059,0.564 l 0,1.623 -0.353,0 0,0.371 0.353,0 0,0.699 0.48,0.287 0,-0.986 0.483,0 0,-0.371 -0.483,0 0,-1.65 c 0,-0.137 0.008,-0.223 0.024,-0.263 0.018,-0.039 0.045,-0.07 0.083,-0.093 0.038,-0.023 0.093,-0.035 0.164,-0.035 0.054,0 0.124,0.007 0.212,0.02"
               id="path68"
               style="fill:#000000;fill-opacity:1;fill-rule:nonzero;stroke:none" /></g><g
             transform="translate(516.9348,798.1609)"
             id="g70"><path
               d="M 0,0 C 0,0.522 0.146,0.909 0.439,1.16 0.684,1.369 0.98,1.474 1.333,1.474 1.724,1.474 2.043,1.347 2.29,1.093 2.539,0.839 2.662,0.487 2.662,0.04 2.662,-0.323 2.607,-0.609 2.498,-0.817 2.389,-1.025 2.229,-1.187 2.02,-1.302 1.809,-1.417 1.581,-1.475 1.333,-1.475 c -0.397,0 -0.719,0.126 -0.965,0.38 C 0.123,-0.842 0,-0.478 0,0 m 0.495,0 c 0,-0.362 0.079,-0.632 0.238,-0.812 0.16,-0.18 0.359,-0.27 0.6,-0.27 0.239,0 0.438,0.091 0.597,0.271 0.158,0.181 0.237,0.457 0.237,0.827 0,0.348 -0.079,0.613 -0.239,0.793 C 1.768,0.988 1.57,1.078 1.333,1.078 1.092,1.078 0.893,0.988 0.733,0.81 0.574,0.631 0.495,0.36 0.495,0"
               id="path72"
               style="fill:#000000;fill-opacity:1;fill-rule:nonzero;stroke:none" /></g><g
             transform="translate(524.5422,798.116)"
             id="g74"><path
               d="M 0,0 0.52,-0.131 C 0.411,-0.554 0.215,-0.876 -0.066,-1.1 -0.35,-1.321 -0.695,-1.433 -1.104,-1.433 c -0.423,0 -0.767,0.086 -1.031,0.256 -0.265,0.172 -0.467,0.419 -0.605,0.743 -0.137,0.325 -0.207,0.673 -0.207,1.044 0,0.406 0.078,0.759 0.234,1.061 0.156,0.303 0.378,0.532 0.666,0.688 0.287,0.158 0.605,0.235 0.951,0.235 0.393,0 0.722,-0.099 0.99,-0.297 C 0.161,2.099 0.348,1.82 0.452,1.46 L -0.059,1.34 c -0.09,0.284 -0.222,0.49 -0.395,0.62 -0.173,0.129 -0.39,0.193 -0.653,0.193 -0.301,0 -0.553,-0.071 -0.755,-0.215 C -2.064,1.794 -2.207,1.602 -2.289,1.36 -2.371,1.119 -2.412,0.87 -2.412,0.613 c 0,-0.332 0.049,-0.62 0.145,-0.868 0.098,-0.246 0.249,-0.43 0.455,-0.554 0.205,-0.122 0.426,-0.182 0.666,-0.182 0.291,0 0.536,0.083 0.738,0.249 C -0.207,-0.575 -0.07,-0.328 0,0"
               id="path76"
               style="fill:#000000;fill-opacity:1;fill-rule:nonzero;stroke:none" /></g><g
             transform="translate(525.4602,798.1609)"
             id="g78"><path
               d="M 0,0 C 0,0.522 0.146,0.909 0.439,1.16 0.683,1.369 0.98,1.474 1.332,1.474 1.723,1.474 2.043,1.347 2.29,1.093 2.538,0.839 2.662,0.487 2.662,0.04 2.662,-0.323 2.606,-0.609 2.497,-0.817 2.388,-1.025 2.228,-1.187 2.019,-1.302 1.809,-1.417 1.58,-1.475 1.332,-1.475 c -0.397,0 -0.719,0.126 -0.964,0.38 C 0.123,-0.842 0,-0.478 0,0 m 0.495,0 c 0,-0.362 0.079,-0.632 0.237,-0.812 0.161,-0.18 0.36,-0.27 0.6,-0.27 0.239,0 0.438,0.091 0.598,0.271 0.157,0.181 0.236,0.457 0.236,0.827 0,0.348 -0.079,0.613 -0.238,0.793 C 1.768,0.988 1.569,1.078 1.332,1.078 1.092,1.078 0.893,0.988 0.732,0.81 0.574,0.631 0.495,0.36 0.495,0"
               id="path80"
               style="fill:#000000;fill-opacity:1;fill-rule:nonzero;stroke:none" /></g><g
             transform="translate(528.6868,796.7498)"
             id="g82"><path
               d="m 0,0 0,2.82 0.43,0 0,-0.394 c 0.09,0.138 0.209,0.249 0.356,0.332 0.148,0.085 0.318,0.127 0.506,0.127 0.21,0 0.382,-0.043 0.517,-0.13 C 1.943,2.668 2.039,2.547 2.094,2.391 2.319,2.72 2.611,2.885 2.971,2.885 3.253,2.885 3.47,2.808 3.621,2.652 3.772,2.497 3.849,2.259 3.849,1.937 L 3.849,0 3.37,0 l 0,1.777 C 3.37,1.969 3.354,2.106 3.323,2.19 3.291,2.274 3.234,2.342 3.154,2.393 3.071,2.444 2.975,2.471 2.864,2.471 2.664,2.471 2.499,2.404 2.367,2.273 2.235,2.141 2.168,1.93 2.168,1.64 l 0,-1.64 -0.481,0 0,1.833 C 1.687,2.046 1.648,2.205 1.57,2.312 1.491,2.417 1.363,2.471 1.185,2.471 1.049,2.471 0.924,2.435 0.809,2.364 0.693,2.293 0.61,2.189 0.559,2.054 0.507,1.917 0.48,1.72 0.48,1.464 L 0.48,0 0,0 z"
               id="path84"
               style="fill:#000000;fill-opacity:1;fill-rule:nonzero;stroke:none" /></g><g
             transform="translate(533.2502,796.7498)"
             id="g86"><path
               d="m 0,0 0,2.82 0.43,0 0,-0.394 c 0.09,0.138 0.208,0.249 0.356,0.332 0.148,0.085 0.317,0.127 0.506,0.127 0.21,0 0.383,-0.043 0.517,-0.13 C 1.943,2.668 2.038,2.547 2.094,2.391 2.319,2.72 2.611,2.885 2.971,2.885 3.253,2.885 3.47,2.808 3.62,2.652 3.772,2.497 3.849,2.259 3.849,1.937 L 3.849,0 3.37,0 l 0,1.777 C 3.37,1.969 3.354,2.106 3.323,2.19 3.292,2.274 3.235,2.342 3.153,2.393 3.071,2.444 2.975,2.471 2.864,2.471 2.664,2.471 2.499,2.404 2.366,2.273 2.235,2.141 2.169,1.93 2.169,1.64 l 0,-1.64 -0.482,0 0,1.833 c 0,0.213 -0.04,0.372 -0.118,0.479 C 1.491,2.417 1.363,2.471 1.185,2.471 1.049,2.471 0.924,2.435 0.809,2.364 0.694,2.293 0.61,2.189 0.559,2.054 0.507,1.917 0.481,1.72 0.481,1.464 L 0.481,0 0,0 z"
               id="path88"
               style="fill:#000000;fill-opacity:1;fill-rule:nonzero;stroke:none" /></g><path
             d="m 537.816,800.644 0.481,0 0,-0.551 -0.481,0 0,0.551 z m 0,-1.074 0.481,0 0,-2.82 -0.481,0 0,2.82 z"
             id="path90"
             style="fill:#000000;fill-opacity:1;fill-rule:nonzero;stroke:none" /><g
             transform="translate(540.0813,797.1785)"
             id="g92"><path
               d="m 0,0 0.069,-0.423 c -0.135,-0.028 -0.256,-0.043 -0.363,-0.043 -0.175,0 -0.31,0.028 -0.407,0.083 -0.096,0.055 -0.164,0.127 -0.203,0.217 -0.039,0.089 -0.059,0.277 -0.059,0.564 l 0,1.623 -0.353,0 0,0.371 0.353,0 0,0.699 0.479,0.287 0,-0.986 0.484,0 0,-0.371 -0.484,0 0,-1.65 c 0,-0.137 0.008,-0.223 0.025,-0.263 0.018,-0.039 0.045,-0.07 0.083,-0.093 0.038,-0.023 0.093,-0.035 0.164,-0.035 0.054,0 0.124,0.007 0.212,0.02"
               id="path94"
               style="fill:#000000;fill-opacity:1;fill-rule:nonzero;stroke:none" /></g><g
             transform="translate(504.4133,816.7019)"
             id="g96"><path
               d="m 0,0 c 4.789,-1.94 9.724,-5.614 12.08,-11.409 1.219,3.244 2.641,5.677 4.506,7.536 2.32,-1.946 4.316,-4.44 5.578,-7.536 2.345,6.256 5.447,9.49 11.039,11.409 -4.021,0 -8.289,-3.104 -10.201,-5.866 -1.019,1.539 -2.463,2.843 -4.145,3.833 1.243,0.814 2.652,1.479 4.265,2.033 -1.77,0 -3.59,-0.6 -5.232,-1.51 -2.386,1.173 -5.138,1.744 -7.81,1.51 1.863,-0.755 3.748,-1.769 5.495,-3.074 C 14.488,-3.953 13.569,-4.929 12.92,-5.866 10.336,-1.968 5.02,0.441 0,0"
               id="path98"
               style="fill:#00a6e6;fill-opacity:1;fill-rule:nonzero;stroke:none" /></g><g
             transform="translate(476.2219,788.9139)"
             id="g100" /></g></g></g></g></svg>