<svg width="160" height="93" viewBox="0 0 160 93" fill="none" xmlns="http://www.w3.org/2000/svg">
<g clip-path="url(#clip0_554_24776)">
<mask id="mask0_554_24776" style="mask-type:luminance" maskUnits="userSpaceOnUse" x="-1178" y="-48" width="1437" height="2561">
<path d="M-1177.7 -47.2351H258.793V2512.55H-1177.7V-47.2351Z" fill="white"/>
</mask>
<g mask="url(#mask0_554_24776)">
<path d="M47.0829 15.7812H34.6045V1.97118H45.0945V4.65901H39.7662V7.02454H43.7648V9.7002H39.7662V13.0934H47.0829V15.7812Z" fill="white"/>
<path d="M86.6786 11.4561C86.6786 12.8213 85.9933 13.9341 84.6323 14.7855C83.264 15.6429 81.4155 16.0625 79.0748 16.0625C77.7162 16.0625 76.5385 15.9682 75.5298 15.7615C74.5236 15.5669 73.5752 15.3115 72.6992 14.9983V11.7024H73.1601C74.0337 12.2862 75.0038 12.7362 76.0752 13.0554C77.1515 13.3686 78.194 13.5206 79.1858 13.5206C79.4367 13.5206 79.7794 13.5024 80.1921 13.475C80.6047 13.4294 80.9546 13.3686 81.2008 13.2804C81.5265 13.1649 81.8016 13.0341 82.0092 12.8456C82.2191 12.6814 82.3132 12.4321 82.3132 12.0977C82.3132 11.7936 82.1636 11.5291 81.8571 11.3071C81.5603 11.0912 81.1091 10.9301 80.5227 10.7994C79.917 10.6777 79.2702 10.5561 78.5801 10.4466C77.8899 10.3494 77.2528 10.2034 76.6616 10.0362C75.2837 9.65915 74.2967 9.15747 73.6934 8.49463C73.0877 7.847 72.7837 7.03822 72.7837 6.07742C72.7837 4.79127 73.469 3.72709 74.8397 2.92135C76.2031 2.10041 77.9623 1.69906 80.11 1.69906C81.1983 1.69906 82.2625 1.78419 83.305 1.9575C84.3644 2.13385 84.6105 2.35277 84.8808 2.68723V5.8737L84.9315 5.80985C84.2703 5.34769 84.1255 4.97066 83.1699 4.66053C82.2191 4.34736 81.237 4.19837 80.2451 4.19837C79.8904 4.19837 79.5429 4.22269 79.1954 4.26526C78.8407 4.30479 78.5101 4.38992 78.194 4.49938C77.902 4.59364 77.6607 4.73958 77.4531 4.93722C77.2528 5.13485 77.1491 5.35985 77.1491 5.60613C77.1491 5.97708 77.3108 6.25377 77.6438 6.43924C77.9695 6.63991 78.5897 6.82234 79.5043 6.98653C80.11 7.09295 80.6843 7.19025 81.237 7.29363C81.7872 7.38788 82.3856 7.52471 83.013 7.70106C84.2655 8.05072 85.1897 8.522 85.7882 9.12402C86.3794 9.72605 86.6786 10.5044 86.6786 11.4561Z" fill="white"/>
<path d="M102.953 6.49381C102.953 6.10462 102.823 5.77928 102.572 5.49652C102.311 5.21071 102.024 5.01003 101.684 4.89753C101.237 4.75159 100.798 4.67557 100.378 4.64517C99.9462 4.63909 99.3815 4.62693 98.672 4.62693H98.5924V8.759H99.1692C99.8979 8.759 100.499 8.73164 100.977 8.65258C101.445 8.57657 101.85 8.43366 102.174 8.1965C102.444 8.00799 102.637 7.77387 102.765 7.49414C102.893 7.22049 102.953 6.89212 102.953 6.49381ZM108.076 6.39955C108.076 7.0259 107.943 7.63401 107.68 8.22995C107.42 8.83197 107.051 9.33062 106.561 9.74413C105.904 10.2823 105.159 10.708 104.328 10.9968C103.51 11.2644 102.492 11.4103 101.273 11.4103H98.5924V15.9863H94.2656V1.97255H101.363C102.429 1.97255 103.325 2.05768 104.065 2.20971C104.792 2.36173 105.429 2.5989 105.994 2.89991C106.672 3.27693 107.181 3.75125 107.545 4.32287C107.895 4.89753 108.076 5.58773 108.076 6.39955Z" fill="white"/>
<path d="M20.3595 15.9012C20.3595 15.9012 17.1065 16.3572 14.8599 9.02956L12.4878 16.041H9.53405C9.53405 16.041 6.83856 16.0197 4.49539 8.46403C4.49539 8.46403 2.78688 3.27993 0.890137 2.07588H7.73625L10.8951 10.9451L13.4072 4.52959C13.4072 4.52959 13.8705 2.72047 12.5119 2.15494H17.8956L21.7929 11.2856L24.2253 4.18601C24.2253 4.18601 24.8045 2.99716 23.7982 2.24615L28.5521 2.0394L23.5931 15.8008L20.3595 15.9012Z" fill="white"/>
<path d="M59.5052 13.0954V5.65521C59.58 2.5782 61.1292 1.95793 61.1292 1.95793H57.4998V1.97314H56.3029V1.95793H52.6904C52.6904 1.95793 54.2324 2.5782 54.3 5.65521V13.1015C54.3 13.1015 54.3 15.1204 52.7194 15.7832H56.134H57.6784H61.093H61.0858H66.0376C66.0376 15.7832 66.4551 15.4761 66.9063 14.7221C67.2273 14.196 67.4734 13.0954 67.4734 13.0954H59.5052Z" fill="white"/>
<path d="M158.291 1.95793H152.306C152.306 1.95793 153.692 2.52043 153.897 5.2113V10.3771L152.886 10.444L145.086 1.97314H142.152V1.95793H138.522C138.522 1.95793 140.072 2.5782 140.142 5.65521V13.1015C140.142 13.1015 140.142 15.1204 138.554 15.7832H145.214C143.872 15.2268 143.662 13.6761 143.643 13.2261V6.30893L152.174 15.7832H156.696V5.31771C156.87 2.53563 158.291 1.95793 158.291 1.95793Z" fill="white"/>
<path d="M133.412 1.95738H129.79V1.97258H129.039V1.95738H125.417C125.417 1.95738 126.773 2.50771 127 5.08608V10.5986C127 11.5989 126.735 12.3256 126.18 12.7816C125.642 13.2316 124.78 13.4506 123.603 13.4506C122.401 13.4506 121.537 13.2134 121.013 12.7482C120.478 12.2769 120.202 11.5654 120.202 10.5986V5.03743C120.451 2.49251 121.793 1.95738 121.793 1.95738H118.168V1.97258H117.471V1.95738H113.849C113.849 1.95738 115.371 2.5746 115.463 5.60601V10.7901C115.463 12.4898 116.158 13.7972 117.526 14.7002C118.887 15.6124 120.919 16.0624 123.603 16.0624C124.879 16.0624 126.018 15.956 127 15.7553V16.2266H131.831V4.97358C132.099 2.49251 133.412 1.95738 133.412 1.95738Z" fill="white"/>
<path d="M34.3271 90.0137V78.1708H37.5873C38.3209 78.1708 38.8856 78.2316 39.2741 78.3441C39.8147 78.4992 40.278 78.785 40.6593 79.1894C41.1588 79.7185 41.5304 80.3934 41.7814 81.2114C42.0275 82.0353 42.153 82.9718 42.153 84.0269C42.153 84.9269 42.0685 85.7235 41.8996 86.4167C41.7307 87.113 41.5159 87.6877 41.2529 88.1437C40.9923 88.5968 40.7051 88.9556 40.3914 89.214C40.0801 89.4785 39.7061 89.6762 39.2645 89.813C38.8204 89.9437 38.3113 90.0137 37.7418 90.0137H34.3271ZM35.5796 88.615H37.5994C38.222 88.615 38.7143 88.5451 39.0714 88.3992C39.4237 88.2502 39.7061 88.0495 39.9184 87.785C40.2152 87.411 40.4469 86.9093 40.611 86.286C40.7775 85.6566 40.862 84.8965 40.862 84.0026C40.862 82.7651 40.6979 81.8164 40.3745 81.1505C40.0463 80.4816 39.653 80.0407 39.1897 79.8157C38.8542 79.6516 38.3113 79.5695 37.5704 79.5695H35.5796V88.615Z" fill="white"/>
<path d="M48.2003 88.9543C47.7659 89.4104 47.3533 89.7357 46.9551 89.9243C46.557 90.1128 46.1322 90.207 45.6737 90.207C44.9208 90.207 44.3441 89.979 43.9387 89.5199C43.5333 89.0577 43.3306 88.4679 43.3306 87.7533C43.3306 87.3307 43.4078 86.9476 43.5622 86.601C43.7143 86.2513 43.917 85.9777 44.1607 85.7648C44.4117 85.555 44.6892 85.3969 44.9981 85.2875C45.2273 85.2145 45.57 85.1385 46.0309 85.0716C46.9672 84.9317 47.6573 84.7645 48.1014 84.5699C48.1062 84.3692 48.111 84.2446 48.111 84.1929C48.111 83.5969 47.9976 83.1804 47.778 82.9402C47.4836 82.6088 47.042 82.4446 46.4556 82.4446C45.9102 82.4446 45.5096 82.5632 45.2442 82.8064C44.986 83.0466 44.7929 83.4692 44.6675 84.0804L43.5333 83.8827C43.637 83.2777 43.8084 82.7851 44.0424 82.4111C44.2789 82.0371 44.624 81.7452 45.0704 81.5476C45.5169 81.3439 46.0333 81.2436 46.6269 81.2436C47.2109 81.2436 47.6839 81.3287 48.0507 81.502C48.4175 81.6723 48.6854 81.8912 48.8591 82.1527C49.0304 82.4142 49.1511 82.7425 49.2187 83.1409C49.2549 83.3902 49.2766 83.8341 49.2766 84.4787V86.4185C49.2766 87.7716 49.3007 88.629 49.3514 88.9847C49.4021 89.3405 49.501 89.6841 49.6458 90.0155H48.432C48.3137 89.7145 48.2341 89.3618 48.2003 88.9543ZM48.1014 85.7101C47.6791 85.926 47.0468 86.1084 46.207 86.2574C45.7292 86.3456 45.389 86.4398 45.1935 86.5493C44.9956 86.6557 44.8388 86.8138 44.7326 87.0206C44.6264 87.2304 44.5709 87.4584 44.5709 87.7108C44.5709 88.0999 44.6892 88.4222 44.9257 88.6807C45.1549 88.9391 45.5 89.0668 45.9513 89.0668C46.4001 89.0668 46.7983 88.9452 47.1458 88.702C47.4933 88.4557 47.7515 88.1212 47.9156 87.6956C48.041 87.3702 48.1014 86.8807 48.1014 86.2422V85.7101Z" fill="white"/>
<path d="M51.0659 90.0137V81.4394H52.1132V82.7377C52.3763 82.1296 52.6248 81.7252 52.8517 81.5336C53.0737 81.3391 53.3246 81.2418 53.5973 81.2418C53.9882 81.2418 54.384 81.3968 54.7894 81.71L54.3888 83.06C54.1065 82.8502 53.8242 82.7438 53.537 82.7438C53.2812 82.7438 53.0544 82.8411 52.8517 83.0296C52.6489 83.2242 52.509 83.4887 52.4221 83.8262C52.2918 84.3431 52.2242 84.9056 52.2242 85.5198V90.0137H51.0659Z" fill="white"/>
<path d="M60.1715 87.2486L61.3733 87.4371C61.185 88.3158 60.8303 88.9939 60.3211 89.4803C59.8095 89.9638 59.1532 90.207 58.3568 90.207C57.3578 90.207 56.5614 89.8209 55.975 89.0486C55.3886 88.2763 55.0942 87.1908 55.0942 85.7952C55.0942 84.354 55.3935 83.2351 55.9847 82.4385C56.5807 81.6388 57.3481 81.2405 58.2965 81.2405C59.2111 81.2405 59.9592 81.6297 60.5383 82.4111C61.1223 83.1925 61.4119 84.2902 61.4119 85.7071C61.4119 85.7922 61.4119 85.9229 61.407 86.0932H56.2936C56.3346 87.0388 56.5494 87.7594 56.9331 88.2581C57.3143 88.7597 57.7921 89.0121 58.3665 89.0121C58.7912 89.0121 59.1532 88.8692 59.4548 88.5895C59.7565 88.3128 59.9954 87.8658 60.1715 87.2486ZM56.3587 84.8983H60.186C60.1329 84.1777 59.9881 83.6365 59.7468 83.2746C59.3752 82.7182 58.8974 82.4385 58.3086 82.4385C57.7753 82.4385 57.324 82.6604 56.962 83.1074C56.6 83.5513 56.3998 84.1503 56.3587 84.8983Z" fill="white"/>
<path d="M69.0419 88.7101L69.2108 89.9962C68.8851 90.0813 68.5907 90.127 68.3325 90.127C67.9102 90.127 67.5844 90.0418 67.3503 89.8746C67.1186 89.7074 66.957 89.4884 66.8604 89.2148C66.7663 88.9442 66.7181 88.3726 66.7181 87.4999V82.5652H65.8662V81.4371H66.7181V79.3118L67.8764 78.4392V81.4371H69.0419V82.5652H67.8764V87.582C67.8764 87.9986 67.8957 88.2601 67.9343 88.3817C67.9777 88.5003 68.0429 88.5945 68.1346 88.6645C68.2263 88.7344 68.359 88.7709 68.5303 88.7709C68.6606 88.7709 68.8296 88.7496 69.0419 88.7101Z" fill="white"/>
<path d="M69.7441 85.7242C69.7441 84.1371 70.0965 82.9604 70.8035 82.1972C71.3947 81.5617 72.109 81.2425 72.9609 81.2425C73.9044 81.2425 74.6742 81.6286 75.2703 82.4009C75.8711 83.1732 76.168 84.2435 76.168 85.6026C76.168 86.7063 76.0352 87.5759 75.7722 88.2083C75.5092 88.8407 75.1231 89.3333 74.6187 89.683C74.1095 90.0326 73.5593 90.209 72.9609 90.209C72.0029 90.209 71.2258 89.8259 70.6322 89.0536C70.041 88.2843 69.7441 87.1776 69.7441 85.7242ZM70.9387 85.7242C70.9387 86.8249 71.1293 87.6458 71.513 88.1931C71.8991 88.7404 72.3793 89.0141 72.9609 89.0141C73.5376 89.0141 74.0178 88.7374 74.4015 88.1901C74.7828 87.6397 74.9734 86.8006 74.9734 85.6756C74.9734 84.6175 74.7828 83.8117 74.3967 83.2644C74.0106 82.7202 73.5328 82.4465 72.9609 82.4465C72.3793 82.4465 71.8991 82.7202 71.513 83.2614C71.1293 83.8056 70.9387 84.6296 70.9387 85.7242Z" fill="white"/>
<path d="M88.1018 85.8597L89.3566 86.258C89.0936 87.5442 88.6206 88.5232 87.9425 89.2043C87.2572 89.8763 86.4247 90.2168 85.4377 90.2168C84.4169 90.2168 83.5868 89.9553 82.9497 89.4384C82.3102 88.9155 81.8228 88.1644 81.4898 87.1793C81.1592 86.1911 80.9902 85.133 80.9902 84.005C80.9902 82.7706 81.1785 81.6972 81.5549 80.779C81.9314 79.8577 82.4671 79.1614 83.1621 78.6871C83.8546 78.2067 84.622 77.9726 85.457 77.9726C86.4054 77.9726 87.1993 78.2736 87.846 78.8756C88.4903 79.4777 88.9416 80.326 89.1925 81.4206L87.9594 81.7854C87.7422 80.9219 87.4237 80.2956 87.0062 79.9003C86.5887 79.5081 86.0651 79.3135 85.4304 79.3135C84.7041 79.3135 84.096 79.5294 83.6085 79.9672C83.121 80.405 82.776 80.9888 82.5781 81.7246C82.3802 82.4574 82.2813 83.2145 82.2813 83.9959C82.2813 85.0053 82.3995 85.881 82.6312 86.6351C82.8677 87.383 83.2321 87.9425 83.7292 88.3195C84.2239 88.6905 84.7572 88.8729 85.3363 88.8729C86.0386 88.8729 86.6298 88.6205 87.1172 88.1158C87.6023 87.608 87.9329 86.857 88.1018 85.8597Z" fill="white"/>
<path d="M90.3174 85.7242C90.3174 84.1371 90.6697 82.9604 91.3768 82.1972C91.9656 81.5617 92.6823 81.2425 93.5317 81.2425C94.4752 81.2425 95.2475 81.6286 95.8435 82.4009C96.442 83.1732 96.7412 84.2435 96.7412 85.6026C96.7412 86.7063 96.6061 87.5759 96.343 88.2083C96.08 88.8407 95.6939 89.3333 95.1895 89.683C94.6828 90.0326 94.1302 90.209 93.5317 90.209C92.5737 90.209 91.7966 89.8259 91.2054 89.0536C90.6142 88.2843 90.3174 87.1776 90.3174 85.7242ZM91.5119 85.7242C91.5119 86.8249 91.7025 87.6458 92.0838 88.1931C92.4723 88.7404 92.9525 89.0141 93.5317 89.0141C94.1084 89.0141 94.5887 88.7374 94.9748 88.1901C95.3536 87.6397 95.5443 86.8006 95.5443 85.6756C95.5443 84.6175 95.3536 83.8117 94.9699 83.2644C94.5838 82.7202 94.1036 82.4465 93.5317 82.4465C92.9525 82.4465 92.4723 82.7202 92.0838 83.2614C91.7025 83.8056 91.5119 84.6296 91.5119 85.7242Z" fill="white"/>
<path d="M98.1035 90.0137V81.4394H99.1412V82.6374C99.3584 82.2178 99.6455 81.8803 100 81.6279C100.357 81.3695 100.768 81.2418 101.221 81.2418C101.728 81.2418 102.143 81.3725 102.469 81.637C102.792 81.9016 103.024 82.2695 103.157 82.7438C103.7 81.7434 104.404 81.2418 105.273 81.2418C105.954 81.2418 106.477 81.4759 106.842 81.9502C107.206 82.4215 107.392 83.1451 107.392 84.1242V90.0137H106.236V84.6107C106.236 84.0269 106.197 83.6103 106.122 83.3549C106.045 83.0995 105.908 82.8928 105.715 82.7377C105.514 82.5826 105.283 82.5005 105.015 82.5005C104.532 82.5005 104.134 82.7042 103.815 83.1026C103.497 83.5039 103.335 84.1455 103.335 85.0272V90.0137H102.175V84.4404C102.175 83.7928 102.08 83.3093 101.892 82.984C101.702 82.6647 101.393 82.5005 100.963 82.5005C100.635 82.5005 100.333 82.61 100.056 82.8259C99.7758 83.0417 99.5755 83.358 99.4525 83.7684C99.327 84.185 99.2618 84.784 99.2618 85.5623V90.0137H98.1035Z" fill="white"/>
<path d="M109.116 90.0137V81.4394H110.153V82.6374C110.371 82.2178 110.655 81.8803 111.012 81.6279C111.37 81.3695 111.777 81.2418 112.234 81.2418C112.74 81.2418 113.158 81.3725 113.481 81.637C113.804 81.9016 114.034 82.2695 114.169 82.7438C114.712 81.7434 115.416 81.2418 116.285 81.2418C116.966 81.2418 117.489 81.4759 117.851 81.9502C118.218 82.4215 118.404 83.1451 118.404 84.1242V90.0137H117.248V84.6107C117.248 84.0269 117.209 83.6103 117.135 83.3549C117.06 83.0995 116.922 82.8928 116.724 82.7377C116.527 82.5826 116.295 82.5005 116.027 82.5005C115.544 82.5005 115.146 82.7042 114.825 83.1026C114.509 83.5039 114.35 84.1455 114.35 85.0272V90.0137H113.187V84.4404C113.187 83.7928 113.09 83.3093 112.902 82.984C112.714 82.6647 112.405 82.5005 111.975 82.5005C111.647 82.5005 111.345 82.61 111.068 82.8259C110.79 83.0417 110.588 83.358 110.465 83.7684C110.339 84.185 110.276 84.784 110.276 85.5623V90.0137H109.116Z" fill="white"/>
<path d="M120.134 78.1739H121.295V79.8491H120.134V78.1739ZM120.134 81.4394H121.295V90.0137H120.134V81.4394Z" fill="white"/>
<path d="M125.6 88.7101L125.767 89.9962C125.441 90.0813 125.149 90.127 124.891 90.127C124.468 90.127 124.142 90.0418 123.908 89.8746C123.677 89.7074 123.513 89.4884 123.419 89.2148C123.324 88.9442 123.276 88.3726 123.276 87.4999V82.5652H122.424V81.4371H123.276V79.3118L124.432 78.4392V81.4371H125.6V82.5652H124.432V87.582C124.432 87.9986 124.451 88.2601 124.492 88.3817C124.536 88.5003 124.601 88.5945 124.693 88.6645C124.784 88.7344 124.917 88.7709 125.088 88.7709C125.219 88.7709 125.388 88.7496 125.6 88.7101Z" fill="white"/>
<path d="M39.5278 29.3497C51.0844 35.2483 62.9933 46.4192 68.6787 64.0391C71.6204 54.1756 75.0519 46.778 79.5524 41.1257C85.1509 47.0425 89.9676 54.6256 93.013 64.0391C98.6718 45.0175 106.157 35.1845 119.652 29.3497C109.948 29.3497 99.6491 38.7875 95.0352 47.1854C92.5762 42.5061 89.0916 38.5412 85.0327 35.5311C88.0322 33.0561 91.4323 31.0342 95.3248 29.3497C91.0535 29.3497 86.6615 31.174 82.6991 33.9409C76.9414 30.3744 70.3004 28.6382 63.8524 29.3497C68.3481 31.6453 72.8969 34.7284 77.1127 38.6963C74.4896 41.3689 72.2719 44.3365 70.7058 47.1854C64.4702 35.3335 51.6419 28.0088 39.5278 29.3497Z" fill="#00A6E6"/>
</g>
</g>
<defs>
<clipPath id="clip0_554_24776">
<rect width="159.09" height="92.36" fill="white"/>
</clipPath>
</defs>
</svg>
