<svg xmlns="http://www.w3.org/2000/svg" viewBox="0 0 263.83 85.91">
  <g id="Layer_2" data-name="Layer 2">
    <g id="Layer_2-2" data-name="Layer 2">
      <g>
        <path fill="#B0FF88" d="M0,30.66c.09-.76.17-1.52.27-2.27A30.33,30.33,0,0,1,7,12.75,33.68,33.68,0,0,1,28.39.51,35.23,35.23,0,0,1,55,6.52a31.86,31.86,0,0,1,9.89,11.22,1.43,1.43,0,0,0,.6.54c.67.35,1.4.59,2,1a4.18,4.18,0,0,0,2.29.52,24.13,24.13,0,0,1,13.78,3.91,21.8,21.8,0,0,1,10.06,15,20.74,20.74,0,0,1-2.53,14.06,2.12,2.12,0,0,0-.36,1.2,34.72,34.72,0,0,1-.6,10.17c-2.4,10.68-9,17.35-19.4,20.48a36,36,0,0,1-13.7,1.08,31.16,31.16,0,0,1-13.57-4.41,28.93,28.93,0,0,1-10.85-12c-.75-1.48-1.34-3-2-4.58a.51.51,0,0,0-.51-.38A34.64,34.64,0,0,1,10,55.07,30.54,30.54,0,0,1,.94,39.76C.51,38,.36,36.16.09,34.37A1.79,1.79,0,0,1,0,34ZM52.46,16.5,52,16.06a25.87,25.87,0,0,0-20.55-6.6A24.77,24.77,0,0,0,15.65,17a21.66,21.66,0,0,0,0,30.63L16,48A25,25,0,0,0,34,55.3q18.24.12,36.47,0A14.31,14.31,0,0,0,81.4,50.52a11.84,11.84,0,0,0,2.95-11.29c-1.51-6.18-7.51-10.11-13.15-10.15-12.68-.08-25.37,0-38,0h-.74C37.38,21.94,43.89,17.67,52.46,16.5ZM76.34,63.82c-3.34.93-6.68.77-10,.77H46.11l.12.26a17,17,0,0,0,4.34,5.07,16.08,16.08,0,0,0,8.67,3.28A20.26,20.26,0,0,0,68.53,72,13.07,13.07,0,0,0,76.34,63.82Z"/>
        <g>
          <path fill="#B0FF88" d="M118.24,40.15a17.38,17.38,0,0,1-9.08-2.38,16.76,16.76,0,0,1-6.3-6.88,23.32,23.32,0,0,1-2.31-10.79,23.45,23.45,0,0,1,2.32-10.82,16.73,16.73,0,0,1,6.33-6.89,17.35,17.35,0,0,1,9-2.39,18.74,18.74,0,0,1,5.93.91,15.33,15.33,0,0,1,4.93,2.65,14.31,14.31,0,0,1,3.56,4.26,16.47,16.47,0,0,1,1.87,5.72h-7a9.18,9.18,0,0,0-1.15-3.09,8.23,8.23,0,0,0-2-2.27,8.66,8.66,0,0,0-2.75-1.42,10.56,10.56,0,0,0-3.27-.49,10,10,0,0,0-5.61,1.62,10.74,10.74,0,0,0-3.84,4.69,18.39,18.39,0,0,0-1.39,7.52,18.19,18.19,0,0,0,1.4,7.56,10.55,10.55,0,0,0,3.86,4.65,10,10,0,0,0,5.56,1.57,10.86,10.86,0,0,0,3.27-.48A9.26,9.26,0,0,0,124.35,32a8.18,8.18,0,0,0,2.06-2.28,8.71,8.71,0,0,0,1.14-3.09h7a15.69,15.69,0,0,1-1.7,5.26,15.26,15.26,0,0,1-3.44,4.32,16,16,0,0,1-4.94,2.92A18,18,0,0,1,118.24,40.15Z"/>
          <path fill="#B0FF88" d="M145.81,0V49.92h-6.74V0Z"/>
          <path fill="#B0FF88" d="M162.72,40.23a13.81,13.81,0,0,1-7.34-1.9,12.8,12.8,0,0,1-4.81-5.3,17.52,17.52,0,0,1-1.7-7.91,17.85,17.85,0,0,1,1.7-8,12.71,12.71,0,0,1,4.81-5.31,15.26,15.26,0,0,1,14.71,0,12.58,12.58,0,0,1,4.81,5.31,17.85,17.85,0,0,1,1.7,8A17.52,17.52,0,0,1,174.9,33a12.67,12.67,0,0,1-4.81,5.3A13.82,13.82,0,0,1,162.72,40.23Zm0-5.53a6,6,0,0,0,3.93-1.29A7.61,7.61,0,0,0,169,30a14.66,14.66,0,0,0,.76-4.86,14.66,14.66,0,0,0-.76-4.88,7.65,7.65,0,0,0-2.34-3.47,6,6,0,0,0-3.93-1.28,5.93,5.93,0,0,0-3.9,1.28,7.72,7.72,0,0,0-2.31,3.46,14.59,14.59,0,0,0-.76,4.89,14.66,14.66,0,0,0,.76,4.86,7.72,7.72,0,0,0,2.31,3.46A5.88,5.88,0,0,0,162.72,34.7Z"/>
          <path fill="#B0FF88" d="M190.24,40A10.28,10.28,0,0,1,185,38.71A8.64,8.64,0,0,1,181.54,35a13.43,13.43,0,0,1-1.23-6V10.29h6.74V27.9a6.65,6.65,0,0,0,1.52,4.62,5.32,5.32,0,0,0,4.16,1.68,6.42,6.42,0,0,0,3.19-.79,5.4,5.4,0,0,0,2.2-2.31,7.83,7.83,0,0,0,.79-3.62V10.29h6.77V39.63h-6.41l-.08-7.24h.52a11.49,11.49,0,0,1-3.6,5.72A9.16,9.16,0,0,1,190.24,40Z"/>
          <path fill="#B0FF88" d="M221.34,40.15a11,11,0,0,1-6.13-1.77,11.92,11.92,0,0,1-4.27-5.15A19.73,19.73,0,0,1,209.39,25,19.27,19.27,0,0,1,211,16.76a12,12,0,0,1,4.31-5.11,11,11,0,0,1,6-1.73,8.93,8.93,0,0,1,4.24.88,8.34,8.34,0,0,1,2.62,2.09,10.77,10.77,0,0,1,1.46,2.25h.29V.52h6.74V39.63h-6.61V35h-.42a11.68,11.68,0,0,1-1.51,2.26,8.42,8.42,0,0,1-2.64,2.06A8.91,8.91,0,0,1,221.34,40.15Zm1.84-5.61a5.88,5.88,0,0,0,3.74-1.2A7.33,7.33,0,0,0,229.25,30a14.23,14.23,0,0,0,.81-5,14.38,14.38,0,0,0-.79-5,7.22,7.22,0,0,0-2.34-3.29,6,6,0,0,0-3.75-1.18,5.88,5.88,0,0,0-3.81,1.22,7.39,7.39,0,0,0-2.31,3.36,14.39,14.39,0,0,0-.77,4.87,14.59,14.59,0,0,0,.77,4.89,7.56,7.56,0,0,0,2.33,3.41A5.83,5.83,0,0,0,223.18,34.54Z"/>
          <path fill="#B0FF88" d="M118.45,85.83a17.65,17.65,0,0,1-9.36-2.44,16.57,16.57,0,0,1-6.28-6.93,23.37,23.37,0,0,1-2.26-10.65A23.47,23.47,0,0,1,102.87,55a16.87,16.87,0,0,1,6.32-6.9,17.22,17.22,0,0,1,9-2.4,18.23,18.23,0,0,1,6,.94,16,16,0,0,1,4.93,2.69,14.84,14.84,0,0,1,5.38,9.38h-7.08a10.41,10.41,0,0,0-1.28-2.8,8.71,8.71,0,0,0-2-2.13,8.35,8.35,0,0,0-2.62-1.35,10.68,10.68,0,0,0-3.23-.46,9.89,9.89,0,0,0-5.56,1.6,10.72,10.72,0,0,0-3.86,4.67,18.18,18.18,0,0,0-1.4,7.53,18.16,18.16,0,0,0,1.4,7.5,10.79,10.79,0,0,0,3.87,4.69,10.13,10.13,0,0,0,5.7,1.62,10.76,10.76,0,0,0,5.13-1.16,8.06,8.06,0,0,0,3.34-3.28,10.09,10.09,0,0,0,1.18-5l1.59.26H119.2V64.86h15.64v4.7a17,17,0,0,1-2.11,8.67,14.44,14.44,0,0,1-5.81,5.63A17.68,17.68,0,0,1,118.45,85.83Z"/>
          <path fill="#B0FF88" d="M145.81,49.92V85.31h-6.74V49.92Z"/>
          <path fill="#B0FF88" d="M158.89,85.91a11.82,11.82,0,0,1-5-1,8,8,0,0,1-3.47-3,8.73,8.73,0,0,1-1.27-4.85,8.25,8.25,0,0,1,.92-4.13,7,7,0,0,1,2.49-2.59,12.22,12.22,0,0,1,3.54-1.47,26.86,26.86,0,0,1,4.09-.71c1.68-.19,3.05-.36,4.1-.5a5.94,5.94,0,0,0,2.32-.68,1.62,1.62,0,0,0,.74-1.47v-.13a4.94,4.94,0,0,0-.57-2.46,3.73,3.73,0,0,0-1.7-1.55,6.58,6.58,0,0,0-2.79-.53,7.38,7.38,0,0,0-2.91.52,5.81,5.81,0,0,0-2,1.37,5.4,5.4,0,0,0-1.14,1.81L150,63.26A10.19,10.19,0,0,1,152.66,59a11.46,11.46,0,0,1,4.27-2.53,16.63,16.63,0,0,1,5.38-.84,18.54,18.54,0,0,1,4.14.48,11.73,11.73,0,0,1,3.82,1.64,8.65,8.65,0,0,1,2.8,3.1,10,10,0,0,1,1.07,4.88V85.31h-6.46v-4h-.26a8.69,8.69,0,0,1-1.78,2.3,8.38,8.38,0,0,1-2.8,1.71A10.94,10.94,0,0,1,158.89,85.91Zm1.73-5.07a7.47,7.47,0,0,0,3.62-.83,6.24,6.24,0,0,0,2.36-2.22,5.67,5.67,0,0,0,.84-3V71.32a3.74,3.74,0,0,1-1.12.5q-.8.23-1.77.42c-.65.12-1.29.22-1.92.31l-1.59.21a12.44,12.44,0,0,0-2.72.68,4.46,4.46,0,0,0-1.91,1.33,3.86,3.86,0,0,0,0,4.33,4,4,0,0,0,1.73,1.3A6.68,6.68,0,0,0,160.62,80.84Z"/>
          <path fill="#B0FF88" d="M185.86,68.12V85.31h-6.74V56h6.38l.1,7.25h-.54a11.6,11.6,0,0,1,3.58-5.71,9.09,9.09,0,0,1,5.91-1.9,10.29,10.29,0,0,1,5.21,1.28,8.68,8.68,0,0,1,3.47,3.76,13.33,13.33,0,0,1,1.23,6V85.31h-6.75V67.7a6.69,6.69,0,0,0-1.5-4.62,5.29,5.29,0,0,0-4.15-1.68,6.44,6.44,0,0,0-3.19.78,5.55,5.55,0,0,0-2.2,2.3A7.61,7.61,0,0,0,185.86,68.12Z"/>
          <path fill="#B0FF88" d="M222,85.91a13.76,13.76,0,0,1-7.34-1.9,12.73,12.73,0,0,1-4.81-5.3,17.43,17.43,0,0,1-1.7-7.92,17.67,17.67,0,0,1,1.7-8,12.58,12.58,0,0,1,4.81-5.31A13.85,13.85,0,0,1,222,55.6a15.42,15.42,0,0,1,4.49.63,12.29,12.29,0,0,1,3.7,1.82A10.81,10.81,0,0,1,233,61a11.41,11.41,0,0,1,1.57,3.86l-6.3,1.34a8.36,8.36,0,0,0-.82-2.06,5.8,5.8,0,0,0-1.31-1.59,5.62,5.62,0,0,0-1.79-1,6.6,6.6,0,0,0-2.23-.36,6,6,0,0,0-3.92,1.28,7.72,7.72,0,0,0-2.33,3.44,15.78,15.78,0,0,0,0,9.8,7.75,7.75,0,0,0,2.33,3.45,6,6,0,0,0,3.92,1.27,6.8,6.8,0,0,0,2.27-.36A5.64,5.64,0,0,0,226.15,79a5.88,5.88,0,0,0,1.34-1.65,8.12,8.12,0,0,0,.81-2.15l6.3,1.34A11.82,11.82,0,0,1,233,80.42a11.08,11.08,0,0,1-2.75,3,12.38,12.38,0,0,1-3.74,1.87A14.92,14.92,0,0,1,222,85.91Z"/>
          <path fill="#B0FF88" d="M251,85.91a14.56,14.56,0,0,1-7.54-1.86,12.5,12.5,0,0,1-4.85-5.25,17.64,17.64,0,0,1-1.7-8,17.76,17.76,0,0,1,1.68-7.95,12.69,12.69,0,0,1,4.74-5.34,13.29,13.29,0,0,1,7.23-1.93,14.91,14.91,0,0,1,5,.86,11.66,11.66,0,0,1,4.25,2.68,12.38,12.38,0,0,1,2.91,4.61,18.9,18.9,0,0,1,1.05,6.65v2.15H240.12V67.91h20.36l-3.16,1.36a11.64,11.64,0,0,0-.75-4.34A6.35,6.35,0,0,0,254.32,62a6.29,6.29,0,0,0-3.72-1A6.57,6.57,0,0,0,246.82,62a6.88,6.88,0,0,0-2.38,2.84,9.4,9.4,0,0,0-.82,4V72a10.73,10.73,0,0,0,.94,4.7,6.4,6.4,0,0,0,2.62,2.88,7.67,7.67,0,0,0,3.91,1,7.9,7.9,0,0,0,2.69-.44,5.81,5.81,0,0,0,2.09-1.28,5.45,5.45,0,0,0,1.32-2.09l6.2,1.29A10,10,0,0,1,261,82.17a11.52,11.52,0,0,1-4.21,2.76A16,16,0,0,1,251,85.91Z"/>
        </g>
      </g>
    </g>
  </g>
</svg>