<svg width="546" height="101" viewBox="0 0 546 101" fill="none" xmlns="http://www.w3.org/2000/svg">
<g clip-path="url(#clip0_339_38240)">
<path d="M101.203 50.4894C101.203 52.1953 101.119 53.8798 100.953 55.5429C99.6955 68.0076 93.8434 79.5614 84.5324 87.9613C75.2214 96.3613 63.1158 101.008 50.5656 101C22.7676 100.979 0.0214216 78.2732 0 50.525C-1.22392e-05 39.0204 3.93329 27.8603 11.1496 18.8899C18.3658 9.91957 28.4329 3.67615 39.6863 1.19198C50.9396 -1.29219 62.7054 0.13167 73.038 5.22813C83.3707 10.3246 91.6515 18.7884 96.5114 29.2202C96.6909 29.6056 96.7702 30.0299 96.7419 30.454C96.7135 30.878 96.5785 31.2881 96.3493 31.6462C96.1201 32.0044 95.804 32.299 95.4305 32.5029C95.0569 32.7067 94.6379 32.8133 94.2121 32.8126H88.5604C88.1016 32.8124 87.6516 32.6876 87.2585 32.4515C86.8654 32.2154 86.5441 31.877 86.329 31.4726C82.0662 23.4926 75.2451 17.1705 66.957 13.5181C58.669 9.8656 49.3931 9.09381 40.6136 11.3262C31.8342 13.5586 24.0586 18.6662 18.5312 25.8316C13.0037 32.997 10.0439 41.8061 10.1253 50.8493C10.3181 72.7849 28.2765 90.7111 50.2515 90.9C59.6388 90.9793 68.7622 87.8007 76.0614 81.9078C83.3605 76.0148 88.382 67.7736 90.267 58.5936C90.3444 58.2257 90.3388 57.8453 90.2505 57.4798C90.1621 57.1144 89.9934 56.7733 89.7564 56.4811C89.5195 56.1889 89.2203 55.9532 88.8806 55.7909C88.541 55.6286 88.1693 55.5439 87.7928 55.5429H76.8963C75.1133 55.5496 73.3633 56.0235 71.8213 56.9172C70.2794 57.8109 68.9996 59.0932 68.1099 60.6357C65.8712 64.4832 62.4227 67.4854 58.2997 69.1763C54.1767 70.8672 49.6098 71.1522 45.308 69.9871C41.0061 68.8219 37.2099 66.2718 34.5085 62.7326C31.8072 59.1933 30.3518 54.8629 30.3684 50.4135C30.3849 45.9641 31.8724 41.6447 34.6 38.1255C37.3276 34.6064 41.1427 32.0845 45.4531 30.9513C49.7635 29.818 54.3282 30.1369 58.4385 31.8583C62.5488 33.5797 65.9748 36.6073 68.1849 40.4713C69.0696 41.9923 70.3412 43.2528 71.871 44.1252C73.4009 44.9977 75.1345 45.451 76.8963 45.4394H98.6035C99.2526 45.4394 99.8768 45.6884 100.347 46.1347C100.818 46.5811 101.098 47.1908 101.131 47.8378C101.179 48.7146 101.203 49.5984 101.203 50.4894Z" fill="#3C77AA"/>
<path d="M129.712 38.2012C131.788 34.6222 134.801 31.6743 138.427 29.6728C142.112 27.6232 146.268 26.5657 150.487 26.6044C155.485 26.6044 159.933 27.8291 163.829 30.2787C167.725 32.7291 170.704 36.391 172.308 40.6994H163.054C161.978 38.377 160.206 36.4447 157.984 35.1683C155.687 33.9188 153.102 33.291 150.487 33.3472C147.58 33.2978 144.711 34.0197 142.175 35.4392C139.728 36.8439 137.743 38.9292 136.463 41.4407C135.087 44.0542 134.399 47.0883 134.399 50.5428C134.399 53.9974 135.087 57.0326 136.463 59.6485C137.748 62.1647 139.731 64.2591 142.175 65.6821C144.703 67.1286 147.574 67.8674 150.487 67.8204C153.102 67.8743 155.686 67.2466 157.984 65.9993C160.206 64.722 161.977 62.7899 163.054 60.4682H172.308C170.552 64.9658 167.725 68.4275 163.829 70.8533C159.933 73.2791 155.485 74.4932 150.487 74.4955C146.257 74.5418 142.089 73.484 138.394 71.4271C134.782 69.4175 131.781 66.4693 129.712 62.8952C127.569 59.2529 126.498 55.139 126.498 50.5535C126.498 45.968 127.569 41.8506 129.712 38.2012Z" fill="#3C77AA"/>
<path d="M186.968 24.1738V74.0679H179.274V24.1738H186.968Z" fill="#3C77AA"/>
<path d="M201.696 72.2931C198.878 70.7146 196.561 68.3784 195.008 65.5503C193.388 62.6493 192.577 59.2886 192.577 55.4681C192.577 51.6904 193.41 48.3404 195.076 45.418C196.666 42.5716 199.032 40.2335 201.899 38.6752C204.883 37.1253 208.197 36.3161 211.56 36.3161C214.924 36.3161 218.238 37.1253 221.221 38.6752C224.088 40.2346 226.453 42.5724 228.044 45.418C229.71 48.3404 230.543 51.6904 230.543 55.4681C230.543 59.2458 229.688 62.5946 227.976 65.5146C226.323 68.3774 223.902 70.7226 220.986 72.286C217.986 73.8947 214.626 74.7186 211.221 74.6809C207.891 74.7293 204.607 73.906 201.696 72.2931ZM216.798 66.5909C218.577 65.5997 220.04 64.1272 221.018 62.3428C222.101 60.4421 222.641 58.1493 222.639 55.4645C222.636 52.7798 222.119 50.4977 221.086 48.6184C220.144 46.8492 218.714 45.3862 216.966 44.4023C215.272 43.4595 213.364 42.9686 211.425 42.9768C209.496 42.9651 207.599 43.4565 205.919 44.4023C204.194 45.3841 202.796 46.8502 201.899 48.6184C200.907 50.4858 200.412 52.7679 200.414 55.4645C200.414 59.4679 201.439 62.5566 203.488 64.7306C204.469 65.7945 205.666 66.6367 207 67.2003C208.334 67.764 209.773 68.0362 211.221 67.9986C213.169 68.0109 215.089 67.5277 216.798 66.5945V66.5909Z" fill="#3C77AA"/>
<path d="M269.862 36.9218V74.0786H262.161V69.695C260.891 71.2662 259.256 72.5052 257.399 73.3052C255.434 74.1831 253.303 74.6315 251.151 74.6203C248.417 74.6649 245.714 74.0396 243.278 72.7992C240.957 71.5844 239.051 69.7056 237.805 67.4035C236.477 65.0276 235.813 62.1503 235.813 58.7718V36.9218H243.446V57.6242C243.446 60.9505 244.279 63.5022 245.945 65.2794C247.611 67.0566 249.886 67.944 252.768 67.9416C255.648 67.9416 257.933 67.0542 259.623 65.2794C261.313 63.5046 262.158 60.9529 262.158 57.6242V36.9218H269.862Z" fill="#3C77AA"/>
<path d="M277.731 45.418C279.187 42.6348 281.388 40.3099 284.09 38.7027C286.792 37.0955 289.888 36.2692 293.033 36.3159C295.518 36.3272 297.971 36.8666 300.231 37.8983C302.425 38.828 304.361 40.2746 305.872 42.1143V24.1738H313.641V74.0679H305.872V68.4727C304.511 70.3563 302.714 71.8835 300.634 72.9239C298.262 74.1267 295.629 74.7288 292.969 74.6773C289.834 74.7082 286.753 73.8545 284.083 72.2147C281.376 70.5434 279.18 68.1648 277.731 65.3364C276.143 62.24 275.343 58.8004 275.403 55.322C275.403 51.5989 276.179 48.2976 277.731 45.418ZM304.283 48.7894C303.32 46.9982 301.882 45.5054 300.127 44.4736C298.449 43.4945 296.538 42.9825 294.593 42.991C292.611 42.9741 290.661 43.4959 288.953 44.5004C287.245 45.5048 285.843 46.9542 284.897 48.6932C283.84 50.5607 283.311 52.775 283.311 55.3363C283.259 57.6816 283.805 60.0017 284.897 62.0791C285.858 63.9104 287.309 65.44 289.088 66.4983C290.759 67.4844 292.664 68.0073 294.605 68.013C296.546 68.0186 298.454 67.5068 300.131 66.5303C301.894 65.4925 303.332 63.9859 304.287 62.1789C305.382 60.1155 305.929 57.8062 305.876 55.4717C305.931 53.1444 305.383 50.8423 304.283 48.7894Z" fill="#3C77AA"/>
<path d="M355.73 40.6994C354.614 38.4655 352.848 36.6198 350.664 35.4035C348.358 34.18 345.777 33.5665 343.166 33.6216C340.26 33.5699 337.393 34.2907 334.858 35.71C332.424 37.1008 330.441 39.1605 329.146 41.6439C327.77 44.2098 327.083 47.1797 327.086 50.5535C327.088 53.9273 327.775 56.9067 329.146 59.4917C330.434 61.9885 332.418 64.0603 334.858 65.4576C337.393 66.878 340.26 67.6001 343.166 67.5496C347.355 67.5496 350.756 66.3806 353.367 64.0427C355.978 61.7048 357.577 58.5354 358.165 54.5343H340.532V48.3867H366.409V54.3882C365.659 59.9922 362.882 65.1289 358.601 68.8306C354.319 72.5323 348.83 74.5433 343.166 74.4849C338.937 74.5311 334.768 73.4733 331.074 71.4164C327.461 69.4068 324.461 66.4586 322.391 62.8845C320.249 59.2422 319.178 55.1283 319.178 50.5428C319.178 45.9573 320.249 41.8434 322.391 38.2012C324.468 34.6222 327.48 31.6743 331.106 29.6728C334.791 27.6232 338.948 26.5657 343.166 26.6044C348.165 26.6044 352.612 27.8291 356.508 30.2787C360.404 32.7291 363.384 36.391 364.988 40.6994H355.73Z" fill="#3C77AA"/>
<path d="M379.644 24.1738V74.0679H371.943V24.1738H379.644Z" fill="#3C77AA"/>
<path d="M387.517 45.418C388.967 42.6449 391.158 40.3266 393.847 38.72C396.536 37.1135 399.618 36.2814 402.751 36.3159C405.679 36.3159 408.235 36.8885 410.42 38.0337C412.457 39.0595 414.244 40.5194 415.654 42.3103V36.9218H423.423V74.0786H415.654V68.5511C414.233 70.3996 412.407 71.8991 410.317 72.9346C407.728 74.1985 404.863 74.7954 401.984 74.6709C399.105 74.5464 396.302 73.7044 393.833 72.2218C391.141 70.5433 388.958 68.1657 387.517 65.3436C385.927 62.2474 385.126 58.8078 385.185 55.3291C385.185 51.6013 385.963 48.2976 387.517 45.418ZM414.065 48.7894C413.102 46.9992 411.666 45.5066 409.913 44.4736C408.232 43.4944 406.319 42.9825 404.372 42.991C402.429 42.9808 400.518 43.481 398.831 44.4415C397.081 45.4483 395.644 46.9185 394.679 48.6896C393.62 50.5571 393.09 52.7715 393.09 55.3327C393.037 57.6785 393.584 59.9991 394.679 62.0755C395.638 63.9073 397.088 65.4372 398.867 66.4947C400.532 67.4856 402.434 68.009 404.372 68.0094C406.319 68.0196 408.232 67.5076 409.913 66.5268C411.673 65.4871 413.111 63.9809 414.065 62.1753C415.162 60.1126 415.71 57.8029 415.654 55.4681C415.712 53.1422 415.165 50.841 414.065 48.7894Z" fill="#3C77AA"/>
<path d="M458.183 38.1334C460.498 39.3449 462.393 41.2254 463.621 43.5291C464.927 45.905 465.581 48.7822 465.581 52.1608V74.0786H457.948V53.3084C457.948 49.9821 457.115 47.4304 455.448 45.6532C453.782 43.876 451.507 42.9886 448.622 42.991C445.74 42.991 443.455 43.8784 441.767 45.6532C440.08 47.428 439.235 49.9797 439.232 53.3084V74.0786H431.531V36.9217H439.232V41.1698C440.535 39.6147 442.191 38.3928 444.063 37.606C446.034 36.7512 448.162 36.3155 450.311 36.3266C453.043 36.2778 455.746 36.8982 458.183 38.1334Z" fill="#3C77AA"/>
<path d="M473.107 45.3859C474.57 42.579 476.809 40.2499 479.558 38.6752C482.305 37.0999 485.458 36.3135 489.016 36.3159C493.519 36.3159 497.247 37.3851 500.198 39.5234C503.15 41.6617 505.142 44.7076 506.175 48.6611H497.867C497.266 46.9189 496.132 45.4091 494.625 44.3453C493.133 43.3094 491.265 42.7914 489.023 42.7914C485.872 42.7914 483.361 43.9045 481.49 46.1308C479.619 48.357 478.685 51.4706 478.687 55.4717C478.687 59.4751 479.622 62.5994 481.49 64.8446C483.358 67.0899 485.87 68.2137 489.023 68.216C493.484 68.216 496.434 66.2607 497.874 62.3499H506.182C505.227 65.9451 503.09 69.1156 500.113 71.3522C497.142 73.5761 493.453 74.6892 489.045 74.6916C485.474 74.6916 482.322 73.8933 479.587 72.2967C476.831 70.7059 474.583 68.3663 473.107 65.5503C471.55 62.6493 470.773 59.2886 470.776 55.4681C470.778 51.6476 471.555 48.2869 473.107 45.3859Z" fill="#3C77AA"/>
<path d="M545.705 58.3655H517.264C517.488 61.3354 518.591 63.7185 520.574 65.5146C522.556 67.3108 524.988 68.2101 527.868 68.2125C532.012 68.2125 534.939 66.4816 536.651 63.0199H544.962C543.868 66.3957 541.726 69.3363 538.846 71.4164C535.897 73.5975 532.238 74.688 527.868 74.688C524.526 74.7426 521.23 73.9165 518.31 72.2931C515.51 70.7129 513.215 68.3756 511.687 65.5503C510.088 62.6493 509.289 59.2886 509.292 55.4681C509.294 51.6477 510.071 48.2869 511.623 45.3859C513.105 42.5596 515.382 40.2271 518.174 38.6752C520.988 37.1 524.219 36.3135 527.868 36.3159C531.145 36.2569 534.381 37.0464 537.261 38.6075C539.975 40.0983 542.205 42.3328 543.688 45.0474C545.218 47.8129 545.984 50.9943 545.987 54.5914C545.992 55.8549 545.897 57.1168 545.705 58.3655ZM537.936 52.1608C537.891 49.3311 536.877 47.061 534.894 45.3503C532.911 43.6397 530.457 42.7867 527.532 42.7915C525.018 42.7377 522.578 43.6426 520.709 45.3218C518.817 47.0063 517.69 49.2872 517.328 52.1644L537.936 52.1608Z" fill="#3C77AA"/>
</g>
<defs>
<clipPath id="clip0_339_38240">
<rect width="546" height="101" fill="white"/>
</clipPath>
</defs>
</svg>
