<svg xmlns="http://www.w3.org/2000/svg" viewBox="0 0 93.95 85.91">
  <g id="Layer_2" data-name="Layer 2">
    <g id="Layer_2-2" data-name="Layer 2">
      <path fill="hsl(160 100% 50%)" d="M0,30.66c.09-.76.17-1.52.27-2.27A30.33,30.33,0,0,1,7,12.75,33.68,33.68,0,0,1,28.39.51,35.23,35.23,0,0,1,55,6.52a31.86,31.86,0,0,1,9.89,11.22,1.43,1.43,0,0,0,.6.54c.67.35,1.4.59,2,1a4.18,4.18,0,0,0,2.29.52,24.13,24.13,0,0,1,13.78,3.91,21.8,21.8,0,0,1,10.06,15,20.74,20.74,0,0,1-2.53,14.06,2.12,2.12,0,0,0-.36,1.2,34.72,34.72,0,0,1-.6,10.17c-2.4,10.68-9,17.35-19.4,20.48a36,36,0,0,1-13.7,1.08,31.16,31.16,0,0,1-13.57-4.41,28.93,28.93,0,0,1-10.85-12c-.75-1.48-1.34-3-2-4.58a.51.51,0,0,0-.51-.38A34.64,34.64,0,0,1,10,55.07,30.54,30.54,0,0,1,.94,39.76C.51,38,.36,36.16.09,34.37A1.79,1.79,0,0,1,0,34ZM52.46,16.5,52,16.06a25.87,25.87,0,0,0-20.55-6.6A24.77,24.77,0,0,0,15.65,17a21.66,21.66,0,0,0,0,30.63L16,48A25,25,0,0,0,34,55.3q18.24.12,36.47,0A14.31,14.31,0,0,0,81.4,50.52a11.84,11.84,0,0,0,2.95-11.29c-1.51-6.18-7.51-10.11-13.15-10.15-12.68-.08-25.37,0-38,0h-.74C37.38,21.94,43.89,17.67,52.46,16.5ZM76.34,63.82c-3.34.93-6.68.77-10,.77H46.11l.12.26a17,17,0,0,0,4.34,5.07,16.08,16.08,0,0,0,8.67,3.28A20.26,20.26,0,0,0,68.53,72,13.07,13.07,0,0,0,76.34,63.82Z"/>
    </g>
  </g>
</svg>
