<svg width="203" height="158" viewBox="0 0 203 158" fill="none" xmlns="http://www.w3.org/2000/svg">
<rect x="0.519124" y="0.519124" width="201.962" height="156.962" rx="16.8102" fill="url(#paint0_linear_57_117)" stroke="url(#paint1_linear_57_117)" stroke-width="1.03825"/>
<circle cx="100.874" cy="51.3933" r="31.6666" stroke="#00A07E" stroke-width="4.15299"/>
<path d="M32.6962 112.775C31.6397 112.775 30.7377 112.541 29.9902 112.072C29.2426 111.594 28.6745 110.946 28.2858 110.128C27.897 109.311 27.7027 108.389 27.7027 107.363C27.7027 106.346 27.8921 105.429 28.2708 104.612C28.6595 103.794 29.2277 103.146 29.9752 102.668C30.7227 102.19 31.6298 101.95 32.6962 101.95C33.8923 101.95 34.8641 102.239 35.6116 102.818C36.3692 103.386 36.8526 104.183 37.0619 105.21H35.6714C35.512 104.562 35.1831 104.043 34.6847 103.655C34.1963 103.256 33.5335 103.057 32.6962 103.057C31.869 103.057 31.1812 103.251 30.633 103.64C30.0848 104.019 29.6712 104.532 29.3921 105.18C29.123 105.828 28.9885 106.555 28.9885 107.363C28.9885 108.19 29.128 108.927 29.4071 109.575C29.6961 110.223 30.1147 110.736 30.6629 111.115C31.2111 111.484 31.8889 111.668 32.6962 111.668C33.5335 111.668 34.1963 111.479 34.6847 111.1C35.1831 110.712 35.512 110.198 35.6714 109.56H37.0619C36.8526 110.567 36.3692 111.354 35.6116 111.923C34.8641 112.491 33.8923 112.775 32.6962 112.775ZM38.7921 112.595V102.13H40.0479V112.595H38.7921ZM45.5301 112.775C44.8523 112.775 44.2294 112.625 43.6612 112.326C43.0931 112.017 42.6396 111.574 42.3007 110.996C41.9618 110.408 41.7924 109.7 41.7924 108.873C41.7924 108.085 41.9568 107.402 42.2858 106.824C42.6246 106.246 43.0782 105.798 43.6463 105.479C44.2244 105.16 44.8722 105 45.5899 105C46.2776 105 46.9056 105.15 47.4737 105.449C48.0518 105.748 48.5153 106.186 48.8641 106.765C49.213 107.343 49.3874 108.045 49.3874 108.873C49.3874 109.63 49.2229 110.303 48.894 110.891C48.5651 111.479 48.1066 111.942 47.5185 112.281C46.9404 112.61 46.2776 112.775 45.5301 112.775ZM45.5301 111.683C46.0185 111.683 46.457 111.569 46.8457 111.339C47.2345 111.1 47.5435 110.771 47.7727 110.353C48.0019 109.934 48.1166 109.441 48.1166 108.873C48.1166 108.334 48.0169 107.856 47.8175 107.437C47.6182 107.019 47.3292 106.69 46.9504 106.451C46.5717 106.211 46.1132 106.092 45.5749 106.092C45.0267 106.092 44.5633 106.216 44.1845 106.466C43.8157 106.715 43.5366 107.049 43.3473 107.467C43.1579 107.886 43.0632 108.354 43.0632 108.873C43.0632 109.53 43.1828 110.069 43.422 110.487C43.6612 110.896 43.9702 111.2 44.349 111.399C44.7277 111.589 45.1214 111.683 45.5301 111.683ZM53.8504 112.775C53.2723 112.775 52.764 112.66 52.3254 112.431C51.8969 112.192 51.563 111.833 51.3237 111.354C51.0845 110.866 50.9649 110.253 50.9649 109.515V105.18H52.2208V109.381C52.2208 110.148 52.3803 110.726 52.6992 111.115C53.0182 111.504 53.4966 111.698 54.1345 111.698C54.7724 111.698 55.3006 111.469 55.7193 111.011C56.1479 110.542 56.3621 109.879 56.3621 109.022V105.18H57.618V112.595H56.4818L56.407 111.265C56.1678 111.733 55.8239 112.102 55.3754 112.371C54.9269 112.64 54.4185 112.775 53.8504 112.775ZM63.0491 112.775C62.2916 112.775 61.6388 112.6 61.0906 112.251C60.5424 111.903 60.1188 111.434 59.8197 110.846C59.5207 110.258 59.3712 109.6 59.3712 108.873C59.3712 108.155 59.5157 107.502 59.8048 106.914C60.1038 106.326 60.5274 105.863 61.0756 105.524C61.6238 105.175 62.2866 105 63.0641 105C63.6721 105 64.2103 105.125 64.6787 105.374C65.1472 105.623 65.511 105.972 65.7702 106.421V102.13H67.026V112.595H65.8898L65.7702 111.369C65.5309 111.728 65.1871 112.052 64.7386 112.341C64.29 112.63 63.7269 112.775 63.0491 112.775ZM63.1837 111.683C63.7319 111.683 64.1953 111.559 64.5741 111.31C64.9528 111.05 65.2369 110.712 65.4263 110.293C65.6256 109.864 65.7253 109.396 65.7253 108.888C65.7253 108.349 65.6256 107.871 65.4263 107.452C65.2269 107.034 64.9379 106.705 64.5591 106.466C64.1804 106.216 63.7219 106.092 63.1837 106.092C62.7052 106.092 62.2767 106.206 61.8979 106.436C61.5192 106.665 61.2152 106.989 60.9859 107.407C60.7666 107.816 60.657 108.309 60.657 108.888C60.657 109.466 60.7716 109.964 61.0009 110.383C61.2301 110.801 61.5341 111.125 61.9129 111.354C62.3016 111.574 62.7252 111.683 63.1837 111.683ZM73.6482 112.775C72.6514 112.775 71.7843 112.546 71.0467 112.087C70.3191 111.619 69.751 110.981 69.3423 110.173C68.9436 109.356 68.7443 108.424 68.7443 107.378C68.7443 106.341 68.9436 105.414 69.3423 104.597C69.741 103.779 70.3191 103.136 71.0766 102.668C71.8341 102.19 72.7511 101.95 73.8276 101.95C75.0037 101.95 75.9805 102.234 76.7579 102.803C77.5453 103.371 78.0537 104.153 78.2829 105.15H76.8327C76.6931 104.522 76.3592 104.024 75.831 103.655C75.3127 103.286 74.6449 103.102 73.8276 103.102C73.0003 103.102 72.3026 103.291 71.7345 103.67C71.1663 104.048 70.7377 104.562 70.4487 105.21C70.1696 105.848 70.0301 106.57 70.0301 107.378C70.0301 108.195 70.1746 108.927 70.4636 109.575C70.7527 110.223 71.1713 110.731 71.7195 111.1C72.2677 111.469 72.9255 111.653 73.693 111.653C74.8093 111.653 75.6516 111.33 76.2197 110.682C76.7878 110.024 77.1118 109.127 77.1915 107.99H73.4239V107.004H78.4773V112.595H77.326L77.2214 110.876C76.8426 111.484 76.3792 111.952 75.831 112.281C75.2828 112.61 74.5552 112.775 73.6482 112.775ZM80.3885 112.595V102.13H81.6444V112.595H80.3885ZM86.1697 112.775C85.6613 112.775 85.1979 112.69 84.7792 112.521C84.3606 112.351 84.0267 112.097 83.7775 111.758C83.5383 111.409 83.4187 110.986 83.4187 110.487C83.4187 109.909 83.5682 109.451 83.8672 109.112C84.1663 108.763 84.56 108.514 85.0484 108.364C85.5467 108.205 86.08 108.125 86.6481 108.125H88.6515C88.6515 107.607 88.5618 107.198 88.3824 106.899C88.2129 106.6 87.9887 106.386 87.7096 106.256C87.4305 106.127 87.1215 106.062 86.7826 106.062C86.2943 106.062 85.8706 106.181 85.5118 106.421C85.163 106.65 84.9437 107.009 84.854 107.497H83.5682C83.6181 106.959 83.7975 106.505 84.1065 106.137C84.4154 105.768 84.8042 105.489 85.2726 105.299C85.751 105.1 86.2544 105 86.7826 105C87.5302 105 88.1332 105.14 88.5917 105.419C89.0502 105.688 89.3841 106.052 89.5934 106.51C89.8027 106.969 89.9074 107.477 89.9074 108.035V110.308C89.9074 110.677 89.9522 110.956 90.0419 111.145C90.1316 111.334 90.3609 111.449 90.7297 111.489V112.595C90.4007 112.595 90.1017 112.555 89.8326 112.476C89.5635 112.386 89.3342 112.246 89.1449 112.057C88.9655 111.858 88.8359 111.599 88.7561 111.28C88.507 111.698 88.1631 112.052 87.7245 112.341C87.296 112.63 86.7777 112.775 86.1697 112.775ZM86.364 111.713C86.8624 111.713 87.281 111.589 87.6199 111.339C87.9588 111.08 88.2129 110.751 88.3824 110.353C88.5618 109.954 88.6515 109.54 88.6515 109.112V109.097H86.7527C86.4039 109.097 86.075 109.137 85.766 109.216C85.457 109.286 85.2078 109.421 85.0185 109.62C84.8291 109.81 84.7344 110.079 84.7344 110.427C84.7344 110.876 84.8939 111.205 85.2128 111.414C85.5318 111.614 85.9155 111.713 86.364 111.713ZM92.244 112.595V105.18H93.3803L93.455 106.51C93.6942 106.042 94.0381 105.673 94.4866 105.404C94.9351 105.135 95.4435 105 96.0116 105C96.8887 105 97.5864 105.269 98.1047 105.808C98.633 106.336 98.8971 107.153 98.8971 108.26V112.595H97.6412V108.394C97.6412 107.627 97.4818 107.049 97.1628 106.66C96.8439 106.271 96.3654 106.077 95.7275 106.077C95.0896 106.077 94.5564 106.311 94.1278 106.779C93.7092 107.238 93.4999 107.896 93.4999 108.753V112.595H92.244ZM104.223 112.775C103.525 112.775 102.893 112.615 102.324 112.296C101.766 111.977 101.323 111.529 100.994 110.951C100.665 110.363 100.5 109.675 100.5 108.888C100.5 108.12 100.66 107.447 100.979 106.869C101.298 106.281 101.736 105.823 102.295 105.494C102.853 105.165 103.496 105 104.223 105C105.1 105 105.838 105.23 106.436 105.688C107.044 106.147 107.428 106.76 107.587 107.527H106.301C106.202 107.069 105.957 106.715 105.569 106.466C105.18 106.206 104.727 106.077 104.208 106.077C103.68 106.077 103.236 106.206 102.878 106.466C102.519 106.725 102.245 107.069 102.055 107.497C101.876 107.926 101.786 108.389 101.786 108.888C101.786 109.436 101.891 109.924 102.1 110.353C102.309 110.781 102.594 111.115 102.952 111.354C103.321 111.594 103.74 111.713 104.208 111.713C104.727 111.713 105.18 111.589 105.569 111.339C105.957 111.08 106.202 110.717 106.301 110.248H107.587C107.487 110.746 107.283 111.185 106.974 111.564C106.665 111.942 106.276 112.242 105.808 112.461C105.34 112.67 104.811 112.775 104.223 112.775ZM112.675 112.775C111.987 112.775 111.364 112.615 110.806 112.296C110.258 111.977 109.824 111.529 109.505 110.951C109.187 110.363 109.027 109.675 109.027 108.888C109.027 108.11 109.177 107.432 109.476 106.854C109.785 106.266 110.213 105.813 110.761 105.494C111.32 105.165 111.967 105 112.705 105C113.403 105 114.011 105.155 114.529 105.464C115.047 105.773 115.451 106.191 115.74 106.72C116.039 107.238 116.188 107.821 116.188 108.469C116.188 108.608 116.188 108.718 116.188 108.798C116.188 108.878 116.183 109.002 116.174 109.172H110.268C110.298 109.66 110.412 110.099 110.612 110.487C110.821 110.866 111.1 111.165 111.449 111.384C111.808 111.604 112.217 111.713 112.675 111.713C113.193 111.713 113.627 111.594 113.976 111.354C114.325 111.115 114.579 110.791 114.738 110.383H115.979C115.85 110.841 115.635 111.25 115.336 111.609C115.037 111.967 114.663 112.251 114.215 112.461C113.776 112.67 113.263 112.775 112.675 112.775ZM110.283 108.2H114.948C114.918 107.532 114.688 107.009 114.26 106.63C113.831 106.251 113.303 106.062 112.675 106.062C112.077 106.062 111.544 106.246 111.075 106.615C110.617 106.974 110.353 107.502 110.283 108.2ZM121.227 112.595L125.084 102.13H126.415L130.257 112.595H128.926L127.969 109.904H123.514L122.542 112.595H121.227ZM123.888 108.888H127.596L125.742 103.715L123.888 108.888ZM131.813 112.595V102.13H133.069V112.595H131.813ZM143.834 112.775C142.778 112.775 141.876 112.541 141.128 112.072C140.381 111.594 139.812 110.946 139.424 110.128C139.035 109.311 138.841 108.389 138.841 107.363C138.841 106.346 139.03 105.429 139.409 104.612C139.797 103.794 140.366 103.146 141.113 102.668C141.861 102.19 142.768 101.95 143.834 101.95C145.03 101.95 146.002 102.239 146.75 102.818C147.507 103.386 147.991 104.183 148.2 105.21H146.809C146.65 104.562 146.321 104.043 145.823 103.655C145.334 103.256 144.671 103.057 143.834 103.057C143.007 103.057 142.319 103.251 141.771 103.64C141.223 104.019 140.809 104.532 140.53 105.18C140.261 105.828 140.126 106.555 140.126 107.363C140.126 108.19 140.266 108.927 140.545 109.575C140.834 110.223 141.253 110.736 141.801 111.115C142.349 111.484 143.027 111.668 143.834 111.668C144.671 111.668 145.334 111.479 145.823 111.1C146.321 110.712 146.65 110.198 146.809 109.56H148.2C147.991 110.567 147.507 111.354 146.75 111.923C146.002 112.491 145.03 112.775 143.834 112.775ZM153.354 112.775C152.676 112.775 152.053 112.625 151.485 112.326C150.917 112.017 150.463 111.574 150.124 110.996C149.786 110.408 149.616 109.7 149.616 108.873C149.616 108.085 149.781 107.402 150.109 106.824C150.448 106.246 150.902 105.798 151.47 105.479C152.048 105.16 152.696 105 153.414 105C154.101 105 154.729 105.15 155.297 105.449C155.875 105.748 156.339 106.186 156.688 106.765C157.037 107.343 157.211 108.045 157.211 108.873C157.211 109.63 157.047 110.303 156.718 110.891C156.389 111.479 155.93 111.942 155.342 112.281C154.764 112.61 154.101 112.775 153.354 112.775ZM153.354 111.683C153.842 111.683 154.281 111.569 154.669 111.339C155.058 111.1 155.367 110.771 155.596 110.353C155.826 109.934 155.94 109.441 155.94 108.873C155.94 108.334 155.841 107.856 155.641 107.437C155.442 107.019 155.153 106.69 154.774 106.451C154.395 106.211 153.937 106.092 153.399 106.092C152.85 106.092 152.387 106.216 152.008 106.466C151.639 106.715 151.36 107.049 151.171 107.467C150.982 107.886 150.887 108.354 150.887 108.873C150.887 109.53 151.006 110.069 151.246 110.487C151.485 110.896 151.794 111.2 152.173 111.399C152.551 111.589 152.945 111.683 153.354 111.683ZM158.953 112.595V105.18H160.089L160.194 106.6C160.423 106.112 160.772 105.723 161.241 105.434C161.709 105.145 162.287 105 162.975 105V106.316H162.631C161.814 106.316 161.206 106.535 160.807 106.974C160.408 107.412 160.209 108.04 160.209 108.858V112.595H158.953ZM167.441 112.775C166.753 112.775 166.13 112.615 165.572 112.296C165.024 111.977 164.59 111.529 164.271 110.951C163.952 110.363 163.793 109.675 163.793 108.888C163.793 108.11 163.943 107.432 164.242 106.854C164.551 106.266 164.979 105.813 165.527 105.494C166.085 105.165 166.733 105 167.471 105C168.169 105 168.777 105.155 169.295 105.464C169.813 105.773 170.217 106.191 170.506 106.72C170.805 107.238 170.954 107.821 170.954 108.469C170.954 108.608 170.954 108.718 170.954 108.798C170.954 108.878 170.949 109.002 170.939 109.172H165.034C165.064 109.66 165.178 110.099 165.378 110.487C165.587 110.866 165.866 111.165 166.215 111.384C166.574 111.604 166.983 111.713 167.441 111.713C167.959 111.713 168.393 111.594 168.742 111.354C169.091 111.115 169.345 110.791 169.504 110.383H170.745C170.616 110.841 170.401 111.25 170.102 111.609C169.803 111.967 169.429 112.251 168.981 112.461C168.542 112.67 168.029 112.775 167.441 112.775ZM165.049 108.2H169.714C169.684 107.532 169.454 107.009 169.026 106.63C168.597 106.251 168.069 106.062 167.441 106.062C166.843 106.062 166.31 106.246 165.841 106.615C165.383 106.974 165.119 107.502 165.049 108.2Z" fill="white"/>
<path d="M66.6229 129.322L68.9902 120.227H70.4977L72.8524 129.322H71.7187L71.1206 126.905H68.3672L67.7692 129.322H66.6229ZM68.5915 125.958H70.8839L70.1862 123.155C70.0533 122.623 69.9495 122.179 69.8747 121.822C69.8 121.465 69.7543 121.232 69.7377 121.124C69.7211 121.232 69.6754 121.465 69.6006 121.822C69.5259 122.179 69.4221 122.619 69.2892 123.142L68.5915 125.958ZM74.7787 129.322V128.3H76.6351V121.249H74.7787V120.227H79.6377V121.249H77.7813V128.3H79.6377V129.322H74.7787ZM89.6575 129.322V120.227H94.8902V121.249H90.7663V124.064H94.4542V125.074H90.7663V128.3H94.8902V129.322H89.6575ZM97.0283 129.322V122.47H98.1496V123.778H98.3863L98.1496 124.039C98.1496 123.5 98.3116 123.084 98.6355 122.794C98.9594 122.495 99.408 122.345 99.9811 122.345C100.67 122.345 101.219 122.557 101.626 122.98C102.033 123.404 102.236 123.981 102.236 124.712V129.322H101.115V124.837C101.115 124.347 100.982 123.973 100.716 123.715C100.459 123.45 100.106 123.317 99.6571 123.317C99.192 123.317 98.8224 123.458 98.5483 123.74C98.2825 124.023 98.1496 124.43 98.1496 124.961V129.322H97.0283ZM105.358 131.565V130.543H107.539C107.888 130.543 108.141 130.464 108.299 130.306C108.465 130.148 108.548 129.903 108.548 129.571V128.699L108.573 127.453H108.349L108.56 127.266C108.56 127.765 108.394 128.159 108.062 128.45C107.73 128.741 107.285 128.886 106.729 128.886C106.023 128.886 105.466 128.658 105.059 128.201C104.652 127.736 104.449 127.113 104.449 126.332V124.887C104.449 124.106 104.652 123.487 105.059 123.03C105.466 122.573 106.023 122.345 106.729 122.345C107.285 122.345 107.73 122.49 108.062 122.781C108.394 123.072 108.56 123.466 108.56 123.965L108.349 123.778H108.56V122.47H109.669V129.571C109.669 130.186 109.478 130.672 109.096 131.029C108.722 131.386 108.199 131.565 107.526 131.565H105.358ZM107.065 127.914C107.531 127.914 107.896 127.769 108.162 127.478C108.428 127.187 108.56 126.785 108.56 126.27V124.961C108.56 124.446 108.428 124.044 108.162 123.753C107.896 123.462 107.531 123.317 107.065 123.317C106.592 123.317 106.222 123.458 105.957 123.74C105.699 124.023 105.57 124.43 105.57 124.961V126.27C105.57 126.801 105.699 127.208 105.957 127.491C106.222 127.773 106.592 127.914 107.065 127.914ZM111.882 129.322V128.3H114.312V123.491H112.194V122.47H115.433V128.3H117.738V129.322H111.882ZM114.748 121.236C114.474 121.236 114.258 121.166 114.1 121.024C113.942 120.883 113.863 120.692 113.863 120.451C113.863 120.202 113.942 120.007 114.1 119.866C114.258 119.716 114.474 119.641 114.748 119.641C115.022 119.641 115.238 119.716 115.396 119.866C115.553 120.007 115.632 120.202 115.632 120.451C115.632 120.692 115.553 120.883 115.396 121.024C115.238 121.166 115.022 121.236 114.748 121.236ZM119.44 129.322V122.47H120.561V123.778H120.798L120.561 124.039C120.561 123.5 120.723 123.084 121.047 122.794C121.371 122.495 121.82 122.345 122.393 122.345C123.082 122.345 123.63 122.557 124.037 122.98C124.444 123.404 124.648 123.981 124.648 124.712V129.322H123.526V124.837C123.526 124.347 123.393 123.973 123.128 123.715C122.87 123.45 122.517 123.317 122.069 123.317C121.604 123.317 121.234 123.458 120.96 123.74C120.694 124.023 120.561 124.43 120.561 124.961V129.322H119.44ZM129.502 129.447C128.962 129.447 128.489 129.339 128.082 129.123C127.683 128.907 127.371 128.604 127.147 128.213C126.931 127.814 126.823 127.354 126.823 126.83V124.961C126.823 124.43 126.931 123.969 127.147 123.578C127.371 123.188 127.683 122.885 128.082 122.669C128.489 122.453 128.962 122.345 129.502 122.345C130.042 122.345 130.511 122.453 130.91 122.669C131.317 122.885 131.628 123.188 131.844 123.578C132.068 123.969 132.181 124.43 132.181 124.961V126.17H127.92V126.83C127.92 127.37 128.057 127.785 128.331 128.076C128.605 128.359 128.995 128.5 129.502 128.5C129.934 128.5 130.283 128.425 130.548 128.275C130.814 128.118 130.976 127.885 131.034 127.578H132.156C132.081 128.151 131.798 128.608 131.308 128.948C130.827 129.28 130.224 129.447 129.502 129.447ZM131.084 125.422V124.961C131.084 124.421 130.947 124.006 130.673 123.715C130.407 123.425 130.017 123.279 129.502 123.279C128.995 123.279 128.605 123.425 128.331 123.715C128.057 124.006 127.92 124.421 127.92 124.961V125.323H131.171L131.084 125.422Z" fill="#C7C7C7"/>
<path d="M84 46.4864C84.0323 46.2013 84.0646 45.9188 84.1018 45.6362C84.3653 43.4813 85.2377 41.4478 86.6154 39.7773C88.5947 37.2933 91.434 35.655 94.5634 35.1913C98.155 34.6136 101.481 35.3388 104.474 37.4418C106.014 38.5302 107.275 39.9708 108.155 41.6453C108.208 41.7337 108.286 41.8049 108.378 41.8503C108.627 41.9779 108.897 42.0679 109.123 42.2129C109.383 42.3584 109.679 42.4252 109.975 42.4055C111.792 42.3608 113.579 42.8717 115.102 43.8708C117.133 45.2111 118.432 47.0691 118.845 49.4946C119.162 51.3069 118.828 53.1736 117.903 54.7608C117.815 54.8946 117.769 55.0526 117.772 55.2135C117.881 56.4871 117.806 57.7701 117.548 59.0218C116.654 63.0228 114.195 65.5234 110.328 66.6936C108.67 67.1578 106.938 67.2953 105.229 67.0987C103.442 66.9489 101.714 66.383 100.182 65.4458C98.4401 64.369 97.0386 62.8157 96.1406 60.9673C95.8624 60.4122 95.6439 59.827 95.4129 59.2519C95.4019 59.2101 95.3773 59.1731 95.3432 59.1469C95.309 59.1206 95.2671 59.1065 95.2241 59.1069C92.4136 58.8078 89.7787 57.5865 87.7256 55.6311C86.0593 54.0991 84.8841 52.1021 84.3502 49.8947C84.1912 49.2346 84.1341 48.5469 84.0323 47.8767C84.0248 47.8317 84 47.7967 84 47.7442V46.4864ZM103.522 41.1802L103.341 41.0151C102.318 40.073 101.105 39.3645 99.7843 38.938C98.4639 38.5116 97.0677 38.3774 95.6911 38.5446C93.4598 38.7356 91.3737 39.7373 89.8219 41.3627C89.063 42.1277 88.4636 43.0377 88.0589 44.0393C87.6542 45.0408 87.4524 46.1136 87.4654 47.1948C87.4784 48.2759 87.7058 49.3436 88.1344 50.335C88.5629 51.3264 89.184 52.2216 89.961 52.9679C90.8372 53.8526 91.8804 54.5518 93.0291 55.0242C94.1779 55.4966 95.409 55.7327 96.6498 55.7186C101.173 55.7461 105.698 55.7386 110.221 55.7186C110.987 55.7324 111.748 55.5794 112.45 55.2699C113.152 54.9605 113.78 54.5019 114.289 53.9257C114.82 53.3765 115.2 52.6983 115.393 51.9573C115.586 51.2163 115.585 50.4376 115.39 49.6972C114.828 47.3816 112.596 45.9113 110.494 45.8963C105.775 45.8638 101.056 45.8963 96.3493 45.8963H96.0736C97.9091 43.2207 100.333 41.6203 103.522 41.1802ZM112.407 58.9093C111.165 59.2569 109.923 59.1994 108.681 59.1994C106.257 59.1994 103.833 59.1994 101.409 59.1994H101.16C101.173 59.2319 101.188 59.2636 101.205 59.2944C101.613 60.0288 102.16 60.6747 102.817 61.1949C103.75 61.9145 104.873 62.3423 106.046 62.4251C107.217 62.5531 108.401 62.4023 109.503 61.985C110.186 61.7248 110.801 61.3131 111.304 60.7807C111.806 60.2482 112.183 59.6086 112.407 58.9093Z" fill="#5BBD8F"/>
<defs>
<linearGradient id="paint0_linear_57_117" x1="5.57255" y1="2.9378" x2="206.563" y2="104.835" gradientUnits="userSpaceOnUse">
<stop stop-color="#2A554D" stop-opacity="0.51"/>
<stop offset="1" stop-color="#203935" stop-opacity="0.5"/>
</linearGradient>
<linearGradient id="paint1_linear_57_117" x1="101.5" y1="0" x2="101.5" y2="158" gradientUnits="userSpaceOnUse">
<stop stop-color="#4E806D"/>
<stop offset="0.5" stop-color="#516B63"/>
<stop offset="1" stop-color="#3F755A"/>
</linearGradient>
</defs>
</svg>
