<svg width="203" height="158" viewBox="0 0 203 158" fill="none" xmlns="http://www.w3.org/2000/svg">
<rect x="0.519124" y="0.519124" width="201.962" height="156.962" rx="16.8102" fill="url(#paint0_linear_57_112)" stroke="url(#paint1_linear_57_112)" stroke-width="1.03825"/>
<path d="M47.1229 113V102.378H48.3976V113H47.1229ZM50.5739 113V105.473H51.7272L51.803 106.824C52.0458 106.349 52.3949 105.974 52.8501 105.701C53.3053 105.428 53.8213 105.291 54.3979 105.291C55.2881 105.291 55.9963 105.565 56.5223 106.111C57.0585 106.647 57.3266 107.476 57.3266 108.599V113H56.0519V108.736C56.0519 107.957 55.89 107.37 55.5663 106.976C55.2426 106.581 54.757 106.384 54.1096 106.384C53.4621 106.384 52.9209 106.622 52.4859 107.097C52.061 107.562 51.8486 108.23 51.8486 109.1V113H50.5739ZM62.1557 113.182C61.5589 113.182 61.0227 113.081 60.5472 112.879C60.0718 112.666 59.6873 112.373 59.394 111.998C59.1107 111.614 58.9337 111.164 58.8629 110.648H60.1679C60.2488 111.042 60.4562 111.386 60.79 111.68C61.134 111.963 61.5943 112.105 62.1709 112.105C62.7071 112.105 63.1016 111.993 63.3545 111.771C63.6074 111.538 63.7339 111.265 63.7339 110.951C63.7339 110.648 63.658 110.415 63.5062 110.253C63.3646 110.092 63.1522 109.97 62.8689 109.889C62.5958 109.798 62.2569 109.712 61.8522 109.631C61.4273 109.54 61.0126 109.419 60.6079 109.267C60.2033 109.105 59.8694 108.888 59.6064 108.615C59.3434 108.341 59.2119 107.982 59.2119 107.537C59.2119 107.092 59.3231 106.703 59.5457 106.369C59.7683 106.035 60.0819 105.772 60.4865 105.58C60.9013 105.387 61.3869 105.291 61.9433 105.291C62.7425 105.291 63.395 105.494 63.9008 105.898C64.4167 106.293 64.7151 106.859 64.7961 107.598H63.5366C63.486 107.213 63.3191 106.915 63.0358 106.703C62.7627 106.48 62.3934 106.369 61.9281 106.369C61.4729 106.369 61.1188 106.465 60.8659 106.657C60.6231 106.849 60.5017 107.102 60.5017 107.416C60.5017 107.618 60.5725 107.79 60.7141 107.932C60.8558 108.073 61.0581 108.195 61.3211 108.296C61.5943 108.397 61.9129 108.488 62.2771 108.569C62.7829 108.67 63.2432 108.797 63.658 108.948C64.0728 109.1 64.4066 109.323 64.6595 109.616C64.9124 109.899 65.0389 110.309 65.0389 110.845C65.049 111.29 64.9326 111.69 64.6899 112.044C64.4572 112.398 64.1233 112.676 63.6883 112.879C63.2635 113.081 62.7526 113.182 62.1557 113.182ZM69.4932 113C68.8053 113 68.264 112.833 67.8695 112.499C67.475 112.165 67.2777 111.563 67.2777 110.693V106.551H65.9727V105.473H67.2777V103.668H68.5523V105.473H70.6616V106.551H68.5523V110.693C68.5523 111.169 68.6485 111.493 68.8407 111.665C69.0329 111.827 69.3718 111.907 69.8573 111.907H70.6616V113H69.4932ZM74.891 113.182C74.3751 113.182 73.9047 113.096 73.4798 112.924C73.0549 112.752 72.716 112.494 72.4631 112.15C72.2203 111.796 72.0989 111.366 72.0989 110.86C72.0989 110.274 72.2506 109.808 72.5541 109.464C72.8576 109.11 73.2572 108.857 73.7529 108.706C74.2587 108.544 74.8 108.463 75.3766 108.463H77.41C77.41 107.937 77.3189 107.522 77.1368 107.219C76.9649 106.915 76.7372 106.698 76.454 106.566C76.1707 106.435 75.8571 106.369 75.5132 106.369C75.0175 106.369 74.5875 106.49 74.2233 106.733C73.8693 106.966 73.6467 107.33 73.5557 107.826H72.2506C72.3012 107.279 72.4833 106.819 72.7969 106.445C73.1105 106.07 73.5051 105.787 73.9805 105.595C74.4661 105.393 74.977 105.291 75.5132 105.291C76.2719 105.291 76.8839 105.433 77.3493 105.716C77.8146 105.989 78.1535 106.359 78.366 106.824C78.5784 107.289 78.6846 107.805 78.6846 108.372V110.678C78.6846 111.053 78.7301 111.336 78.8212 111.528C78.9122 111.72 79.1449 111.837 79.5192 111.877V113C79.1854 113 78.8819 112.96 78.6088 112.879C78.3356 112.788 78.1029 112.646 77.9107 112.454C77.7286 112.251 77.5971 111.988 77.5162 111.665C77.2633 112.09 76.9143 112.449 76.4692 112.742C76.0342 113.035 75.5081 113.182 74.891 113.182ZM75.0883 112.105C75.5941 112.105 76.019 111.978 76.3629 111.725C76.7069 111.462 76.9649 111.128 77.1368 110.724C77.3189 110.319 77.41 109.899 77.41 109.464V109.449H75.4828C75.1287 109.449 74.7949 109.49 74.4813 109.571C74.1677 109.641 73.9148 109.778 73.7226 109.98C73.5304 110.172 73.4343 110.446 73.4343 110.8C73.4343 111.255 73.5961 111.589 73.9198 111.801C74.2436 112.004 74.633 112.105 75.0883 112.105ZM81.0562 113V105.473H82.2095L82.2854 106.824C82.5282 106.349 82.8772 105.974 83.3324 105.701C83.7876 105.428 84.3036 105.291 84.8802 105.291C85.7704 105.291 86.4786 105.565 87.0046 106.111C87.5408 106.647 87.8089 107.476 87.8089 108.599V113H86.5342V108.736C86.5342 107.957 86.3724 107.37 86.0486 106.976C85.7249 106.581 85.2393 106.384 84.5919 106.384C83.9444 106.384 83.4032 106.622 82.9682 107.097C82.5433 107.562 82.3309 108.23 82.3309 109.1V113H81.0562ZM92.7291 113C92.0412 113 91.4999 112.833 91.1054 112.499C90.7109 112.165 90.5136 111.563 90.5136 110.693V106.551H89.2086V105.473H90.5136V103.668H91.7883V105.473H93.8975V106.551H91.7883V110.693C91.7883 111.169 91.8844 111.493 92.0766 111.665C92.2688 111.827 92.6077 111.907 93.0933 111.907H93.8975V113H92.7291ZM99.0472 113L102.962 102.378H104.313L108.213 113H106.862L105.891 110.269H101.369L100.383 113H99.0472ZM101.748 109.237H105.512L103.63 103.986L101.748 109.237ZM109.716 113V105.473H110.869L110.945 106.824C111.188 106.349 111.537 105.974 111.992 105.701C112.447 105.428 112.963 105.291 113.54 105.291C114.43 105.291 115.138 105.565 115.664 106.111C116.2 106.647 116.468 107.476 116.468 108.599V113H115.194V108.736C115.194 107.957 115.032 107.37 114.708 106.976C114.385 106.581 113.899 106.384 113.251 106.384C112.604 106.384 112.063 106.622 111.628 107.097C111.203 107.562 110.99 108.23 110.99 109.1V113H109.716ZM120.918 113.182C120.402 113.182 119.932 113.096 119.507 112.924C119.082 112.752 118.743 112.494 118.49 112.15C118.248 111.796 118.126 111.366 118.126 110.86C118.126 110.274 118.278 109.808 118.581 109.464C118.885 109.11 119.284 108.857 119.78 108.706C120.286 108.544 120.827 108.463 121.404 108.463H123.437C123.437 107.937 123.346 107.522 123.164 107.219C122.992 106.915 122.764 106.698 122.481 106.566C122.198 106.435 121.884 106.369 121.54 106.369C121.045 106.369 120.615 106.49 120.251 106.733C119.897 106.966 119.674 107.33 119.583 107.826H118.278C118.328 107.279 118.511 106.819 118.824 106.445C119.138 106.07 119.532 105.787 120.008 105.595C120.493 105.393 121.004 105.291 121.54 105.291C122.299 105.291 122.911 105.433 123.377 105.716C123.842 105.989 124.181 106.359 124.393 106.824C124.606 107.289 124.712 107.805 124.712 108.372V110.678C124.712 111.053 124.757 111.336 124.848 111.528C124.939 111.72 125.172 111.837 125.546 111.877V113C125.213 113 124.909 112.96 124.636 112.879C124.363 112.788 124.13 112.646 123.938 112.454C123.756 112.251 123.624 111.988 123.543 111.665C123.291 112.09 122.942 112.449 122.496 112.742C122.061 113.035 121.535 113.182 120.918 113.182ZM121.116 112.105C121.621 112.105 122.046 111.978 122.39 111.725C122.734 111.462 122.992 111.128 123.164 110.724C123.346 110.319 123.437 109.899 123.437 109.464V109.449H121.51C121.156 109.449 120.822 109.49 120.509 109.571C120.195 109.641 119.942 109.778 119.75 109.98C119.558 110.172 119.462 110.446 119.462 110.8C119.462 111.255 119.623 111.589 119.947 111.801C120.271 112.004 120.66 112.105 121.116 112.105ZM127.083 113V102.378H128.358V113H127.083ZM131.267 116.338L132.936 112.697L129.704 105.473H131.085L133.573 111.331L136.214 105.473H137.534L132.602 116.338H131.267ZM141.318 113.182C140.721 113.182 140.185 113.081 139.709 112.879C139.234 112.666 138.849 112.373 138.556 111.998C138.273 111.614 138.096 111.164 138.025 110.648H139.33C139.411 111.042 139.618 111.386 139.952 111.68C140.296 111.963 140.756 112.105 141.333 112.105C141.869 112.105 142.264 111.993 142.517 111.771C142.77 111.538 142.896 111.265 142.896 110.951C142.896 110.648 142.82 110.415 142.668 110.253C142.527 110.092 142.314 109.97 142.031 109.889C141.758 109.798 141.419 109.712 141.014 109.631C140.589 109.54 140.175 109.419 139.77 109.267C139.365 109.105 139.032 108.888 138.769 108.615C138.506 108.341 138.374 107.982 138.374 107.537C138.374 107.092 138.485 106.703 138.708 106.369C138.93 106.035 139.244 105.772 139.649 105.58C140.063 105.387 140.549 105.291 141.105 105.291C141.905 105.291 142.557 105.494 143.063 105.898C143.579 106.293 143.877 106.859 143.958 107.598H142.699C142.648 107.213 142.481 106.915 142.198 106.703C141.925 106.48 141.556 106.369 141.09 106.369C140.635 106.369 140.281 106.465 140.028 106.657C139.785 106.849 139.664 107.102 139.664 107.416C139.664 107.618 139.735 107.79 139.876 107.932C140.018 108.073 140.22 108.195 140.483 108.296C140.756 108.397 141.075 108.488 141.439 108.569C141.945 108.67 142.405 108.797 142.82 108.948C143.235 109.1 143.569 109.323 143.822 109.616C144.075 109.899 144.201 110.309 144.201 110.845C144.211 111.29 144.095 111.69 143.852 112.044C143.619 112.398 143.285 112.676 142.85 112.879C142.426 113.081 141.915 113.182 141.318 113.182ZM146.796 103.804C146.543 103.804 146.33 103.723 146.159 103.561C145.997 103.39 145.916 103.177 145.916 102.924C145.916 102.681 145.997 102.479 146.159 102.317C146.33 102.155 146.543 102.074 146.796 102.074C147.039 102.074 147.246 102.155 147.418 102.317C147.59 102.479 147.676 102.681 147.676 102.924C147.676 103.177 147.59 103.39 147.418 103.561C147.246 103.723 147.039 103.804 146.796 103.804ZM146.159 113V105.473H147.433V113H146.159ZM152.536 113.182C151.939 113.182 151.403 113.081 150.927 112.879C150.452 112.666 150.067 112.373 149.774 111.998C149.491 111.614 149.314 111.164 149.243 110.648H150.548C150.629 111.042 150.836 111.386 151.17 111.68C151.514 111.963 151.974 112.105 152.551 112.105C153.087 112.105 153.482 111.993 153.734 111.771C153.987 111.538 154.114 111.265 154.114 110.951C154.114 110.648 154.038 110.415 153.886 110.253C153.745 110.092 153.532 109.97 153.249 109.889C152.976 109.798 152.637 109.712 152.232 109.631C151.807 109.54 151.393 109.419 150.988 109.267C150.583 109.105 150.249 108.888 149.986 108.615C149.723 108.341 149.592 107.982 149.592 107.537C149.592 107.092 149.703 106.703 149.926 106.369C150.148 106.035 150.462 105.772 150.867 105.58C151.281 105.387 151.767 105.291 152.323 105.291C153.122 105.291 153.775 105.494 154.281 105.898C154.797 106.293 155.095 106.859 155.176 107.598H153.917C153.866 107.213 153.699 106.915 153.416 106.703C153.143 106.48 152.773 106.369 152.308 106.369C151.853 106.369 151.499 106.465 151.246 106.657C151.003 106.849 150.882 107.102 150.882 107.416C150.882 107.618 150.952 107.79 151.094 107.932C151.236 108.073 151.438 108.195 151.701 108.296C151.974 108.397 152.293 108.488 152.657 108.569C153.163 108.67 153.623 108.797 154.038 108.948C154.453 109.1 154.787 109.323 155.039 109.616C155.292 109.899 155.419 110.309 155.419 110.845C155.429 111.29 155.313 111.69 155.07 112.044C154.837 112.398 154.503 112.676 154.068 112.879C153.643 113.081 153.133 113.182 152.536 113.182Z" fill="white"/>
<path d="M45.0507 130.081V121.744H47.6318C48.1267 121.744 48.5607 121.846 48.9338 122.052C49.3068 122.25 49.5962 122.528 49.8017 122.886C50.0073 123.244 50.1101 123.662 50.1101 124.142C50.1101 124.705 49.9616 125.189 49.6647 125.592C49.3754 125.996 48.9794 126.274 48.4769 126.426L50.2243 130.081H49.0137L47.4148 126.54H46.0786V130.081H45.0507ZM46.0786 125.615H47.6318C48.0582 125.615 48.4008 125.482 48.6597 125.216C48.9185 124.941 49.048 124.584 49.048 124.142C49.048 123.693 48.9185 123.335 48.6597 123.068C48.4008 122.802 48.0582 122.669 47.6318 122.669H46.0786V125.615ZM53.7032 130.195C53.2083 130.195 52.7743 130.096 52.4012 129.898C52.0357 129.7 51.7502 129.422 51.5446 129.064C51.3467 128.699 51.2477 128.276 51.2477 127.797V126.084C51.2477 125.596 51.3467 125.174 51.5446 124.816C51.7502 124.458 52.0357 124.18 52.4012 123.982C52.7743 123.784 53.2083 123.685 53.7032 123.685C54.1981 123.685 54.6282 123.784 54.9937 123.982C55.3668 124.18 55.6523 124.458 55.8503 124.816C56.0558 125.174 56.1586 125.596 56.1586 126.084V127.191H52.2527V127.797C52.2527 128.292 52.3784 128.672 52.6296 128.939C52.8809 129.198 53.2387 129.327 53.7032 129.327C54.0991 129.327 54.4189 129.259 54.6625 129.121C54.9061 128.977 55.0546 128.764 55.1079 128.482H56.1358C56.0672 129.007 55.8084 129.426 55.3592 129.738C54.9176 130.043 54.3656 130.195 53.7032 130.195ZM55.1536 126.506V126.084C55.1536 125.589 55.028 125.208 54.7767 124.941C54.5331 124.675 54.1752 124.542 53.7032 124.542C53.2387 124.542 52.8809 124.675 52.6296 124.941C52.3784 125.208 52.2527 125.589 52.2527 126.084V126.415H55.2335L55.1536 126.506ZM59.4319 130.195C58.7695 130.195 58.248 130.028 57.8673 129.693C57.4866 129.35 57.2962 128.889 57.2962 128.311C57.2962 127.724 57.4866 127.264 57.8673 126.929C58.248 126.594 58.7619 126.426 59.4091 126.426H61.3506V125.798C61.3506 125.41 61.2326 125.113 60.9965 124.907C60.7681 124.694 60.4407 124.587 60.0144 124.587C59.6413 124.587 59.3291 124.667 59.0779 124.827C58.8266 124.98 58.6819 125.189 58.6439 125.455H57.616C57.6845 124.915 57.9396 124.485 58.3812 124.165C58.8228 123.845 59.3748 123.685 60.0372 123.685C60.7605 123.685 61.3315 123.872 61.7503 124.245C62.1691 124.618 62.3784 125.124 62.3784 125.764V130.081H61.3734V128.882H61.2021L61.3734 128.71C61.3734 129.167 61.1945 129.529 60.8367 129.795C60.4864 130.062 60.0182 130.195 59.4319 130.195ZM59.6832 129.384C60.1704 129.384 60.5702 129.262 60.8823 129.019C61.1945 128.775 61.3506 128.463 61.3506 128.082V127.191H59.4319C59.0893 127.191 58.819 127.287 58.621 127.477C58.4231 127.667 58.3241 127.926 58.3241 128.253C58.3241 128.604 58.4421 128.882 58.6781 129.087C58.9218 129.285 59.2568 129.384 59.6832 129.384ZM67.1136 130.081C66.7481 130.081 66.4283 130.008 66.1542 129.864C65.8802 129.719 65.667 129.514 65.5147 129.247C65.3624 128.981 65.2863 128.668 65.2863 128.311V122.68H63.1734V121.744H66.3141V128.311C66.3141 128.569 66.3865 128.775 66.5311 128.927C66.6758 129.072 66.8699 129.144 67.1136 129.144H69.1122V130.081H67.1136ZM78.297 130.081V122.669H76.0128V121.732H81.609V122.669H79.3248V130.081H78.297ZM82.6324 130.081V129.144H84.8594V124.736H82.9179V123.799H85.8873V129.144H88.0001V130.081H82.6324ZM85.2592 122.669C85.0079 122.669 84.8099 122.604 84.6653 122.475C84.5206 122.345 84.4483 122.17 84.4483 121.949C84.4483 121.721 84.5206 121.542 84.6653 121.412C84.8099 121.275 85.0079 121.207 85.2592 121.207C85.5104 121.207 85.7084 121.275 85.853 121.412C85.9977 121.542 86.07 121.721 86.07 121.949C86.07 122.17 85.9977 122.345 85.853 122.475C85.7084 122.604 85.5104 122.669 85.2592 122.669ZM88.6923 130.081V123.799H89.5946V124.553H89.8002L89.6403 124.827C89.6403 124.477 89.7316 124.199 89.9144 123.994C90.1047 123.788 90.3598 123.685 90.6795 123.685C91.0298 123.685 91.3001 123.815 91.4904 124.074C91.6808 124.332 91.7759 124.698 91.7759 125.17L91.4676 124.553H91.9472L91.7303 124.827C91.7303 124.477 91.8254 124.199 92.0158 123.994C92.2137 123.788 92.4726 123.685 92.7924 123.685C93.1883 123.685 93.4929 123.834 93.706 124.131C93.9268 124.428 94.0372 124.82 94.0372 125.307V130.081H93.0893V125.296C93.0893 125.037 93.0322 124.835 92.918 124.69C92.8114 124.546 92.6515 124.473 92.4383 124.473C92.2328 124.473 92.0691 124.546 91.9472 124.69C91.833 124.827 91.7759 125.025 91.7759 125.284V130.081H90.9536V125.296C90.9536 125.029 90.8927 124.827 90.7709 124.69C90.6567 124.546 90.493 124.473 90.2798 124.473C90.0666 124.473 89.9067 124.546 89.8002 124.69C89.6936 124.827 89.6403 125.025 89.6403 125.284V130.081H88.6923ZM97.6417 130.195C97.1468 130.195 96.7128 130.096 96.3398 129.898C95.9743 129.7 95.6888 129.422 95.4832 129.064C95.2853 128.699 95.1863 128.276 95.1863 127.797V126.084C95.1863 125.596 95.2853 125.174 95.4832 124.816C95.6888 124.458 95.9743 124.18 96.3398 123.982C96.7128 123.784 97.1468 123.685 97.6417 123.685C98.1366 123.685 98.5668 123.784 98.9323 123.982C99.3053 124.18 99.5909 124.458 99.7888 124.816C99.9944 125.174 100.097 125.596 100.097 126.084V127.191H96.1913V127.797C96.1913 128.292 96.3169 128.672 96.5682 128.939C96.8194 129.198 97.1773 129.327 97.6417 129.327C98.0376 129.327 98.3574 129.259 98.6011 129.121C98.8447 128.977 98.9932 128.764 99.0465 128.482H100.074C100.006 129.007 99.747 129.426 99.2977 129.738C98.8561 130.043 98.3041 130.195 97.6417 130.195ZM99.0922 126.506V126.084C99.0922 125.589 98.9665 125.208 98.7153 124.941C98.4716 124.675 98.1138 124.542 97.6417 124.542C97.1773 124.542 96.8194 124.675 96.5682 124.941C96.3169 125.208 96.1913 125.589 96.1913 126.084V126.415H99.1721L99.0922 126.506ZM107.969 130.081V129.144H109.67V122.68H107.969V121.744H112.423V122.68H110.721V129.144H112.423V130.081H107.969ZM114.097 130.081V123.799H115.125V124.999H115.342L115.125 125.238C115.125 124.744 115.273 124.363 115.57 124.096C115.867 123.822 116.278 123.685 116.804 123.685C117.436 123.685 117.938 123.879 118.311 124.268C118.684 124.656 118.871 125.185 118.871 125.855V130.081H117.843V125.969C117.843 125.52 117.721 125.178 117.478 124.941C117.242 124.698 116.918 124.576 116.507 124.576C116.08 124.576 115.742 124.705 115.49 124.964C115.247 125.223 115.125 125.596 115.125 126.084V130.081H114.097ZM122.555 130.172C122.129 130.172 121.756 130.107 121.436 129.978C121.124 129.841 120.873 129.651 120.682 129.407C120.5 129.163 120.389 128.874 120.351 128.539H121.379C121.425 128.76 121.547 128.935 121.744 129.064C121.95 129.194 122.22 129.259 122.555 129.259H123.035C123.439 129.259 123.739 129.179 123.937 129.019C124.135 128.851 124.234 128.63 124.234 128.356C124.234 128.09 124.143 127.88 123.96 127.728C123.785 127.568 123.522 127.462 123.172 127.408L122.327 127.271C121.71 127.165 121.25 126.974 120.945 126.7C120.648 126.419 120.5 126.011 120.5 125.478C120.5 124.915 120.679 124.481 121.036 124.176C121.394 123.864 121.931 123.708 122.647 123.708H123.081C123.682 123.708 124.166 123.849 124.531 124.131C124.897 124.412 125.117 124.793 125.194 125.273H124.166C124.12 125.075 124.006 124.919 123.823 124.804C123.64 124.683 123.393 124.622 123.081 124.622H122.647C122.258 124.622 121.973 124.694 121.79 124.839C121.615 124.983 121.527 125.2 121.527 125.49C121.527 125.749 121.604 125.939 121.756 126.061C121.908 126.183 122.148 126.27 122.475 126.323L123.321 126.46C123.998 126.567 124.489 126.765 124.794 127.054C125.106 127.344 125.262 127.762 125.262 128.311C125.262 128.889 125.076 129.346 124.702 129.681C124.337 130.008 123.781 130.172 123.035 130.172H122.555ZM126.571 130.081V129.144H128.798V124.736H126.856V123.799H129.826V129.144H131.939V130.081H126.571ZM129.198 122.669C128.946 122.669 128.749 122.604 128.604 122.475C128.459 122.345 128.387 122.17 128.387 121.949C128.387 121.721 128.459 121.542 128.604 121.412C128.749 121.275 128.946 121.207 129.198 121.207C129.449 121.207 129.647 121.275 129.792 121.412C129.936 121.542 130.009 121.721 130.009 121.949C130.009 122.17 129.936 122.345 129.792 122.475C129.647 122.604 129.449 122.669 129.198 122.669ZM133.716 132.137V131.2H135.715C136.034 131.2 136.267 131.128 136.411 130.983C136.563 130.838 136.64 130.614 136.64 130.309V129.51L136.662 128.368H136.457L136.651 128.196C136.651 128.653 136.499 129.015 136.194 129.281C135.89 129.548 135.482 129.681 134.972 129.681C134.325 129.681 133.815 129.472 133.442 129.053C133.069 128.627 132.882 128.056 132.882 127.34V126.015C132.882 125.299 133.069 124.732 133.442 124.313C133.815 123.895 134.325 123.685 134.972 123.685C135.482 123.685 135.89 123.818 136.194 124.085C136.499 124.351 136.651 124.713 136.651 125.17L136.457 124.999H136.651V123.799H137.667V130.309C137.667 130.873 137.492 131.318 137.142 131.645C136.799 131.973 136.32 132.137 135.703 132.137H133.716ZM135.281 128.79C135.707 128.79 136.042 128.657 136.286 128.391C136.529 128.124 136.651 127.755 136.651 127.283V126.084C136.651 125.611 136.529 125.242 136.286 124.976C136.042 124.709 135.707 124.576 135.281 124.576C134.847 124.576 134.508 124.705 134.264 124.964C134.028 125.223 133.91 125.596 133.91 126.084V127.283C133.91 127.77 134.028 128.143 134.264 128.402C134.508 128.661 134.847 128.79 135.281 128.79ZM139.205 130.081V121.744H140.233V123.799V124.999H140.45L140.233 125.238C140.233 124.744 140.381 124.363 140.678 124.096C140.975 123.822 141.386 123.685 141.912 123.685C142.543 123.685 143.046 123.879 143.419 124.268C143.792 124.656 143.979 125.185 143.979 125.855V130.081H142.951V125.969C142.951 125.52 142.829 125.174 142.585 124.93C142.349 124.679 142.026 124.553 141.615 124.553C141.188 124.553 140.849 124.686 140.598 124.953C140.354 125.219 140.233 125.596 140.233 126.084V130.081H139.205ZM148.542 130.081C148.002 130.081 147.579 129.936 147.275 129.647C146.978 129.357 146.829 128.95 146.829 128.425V124.736H145.059V123.799H146.829V122.029H147.857V123.799H150.37V124.736H147.857V128.425C147.857 128.904 148.086 129.144 148.542 129.144H150.256V130.081H148.542ZM153.94 130.172C153.514 130.172 153.141 130.107 152.821 129.978C152.509 129.841 152.257 129.651 152.067 129.407C151.884 129.163 151.774 128.874 151.736 128.539H152.764C152.809 128.76 152.931 128.935 153.129 129.064C153.335 129.194 153.605 129.259 153.94 129.259H154.42C154.823 129.259 155.124 129.179 155.322 129.019C155.52 128.851 155.619 128.63 155.619 128.356C155.619 128.09 155.528 127.88 155.345 127.728C155.17 127.568 154.907 127.462 154.557 127.408L153.712 127.271C153.095 127.165 152.634 126.974 152.33 126.7C152.033 126.419 151.884 126.011 151.884 125.478C151.884 124.915 152.063 124.481 152.421 124.176C152.779 123.864 153.316 123.708 154.031 123.708H154.465C155.067 123.708 155.55 123.849 155.916 124.131C156.281 124.412 156.502 124.793 156.578 125.273H155.55C155.505 125.075 155.39 124.919 155.208 124.804C155.025 124.683 154.778 124.622 154.465 124.622H154.031C153.643 124.622 153.358 124.694 153.175 124.839C153 124.983 152.912 125.2 152.912 125.49C152.912 125.749 152.988 125.939 153.141 126.061C153.293 126.183 153.533 126.27 153.86 126.323L154.705 126.46C155.383 126.567 155.874 126.765 156.178 127.054C156.491 127.344 156.647 127.762 156.647 128.311C156.647 128.889 156.46 129.346 156.087 129.681C155.722 130.008 155.166 130.172 154.42 130.172H153.94Z" fill="#B0FF88"/>
<rect x="61" y="23.6002" width="80.4061" height="64.7171" rx="9.80562" fill="#31FF6B" fill-opacity="0.55"/>
<path d="M131.6 23.6002C137.016 23.6002 141.406 27.9904 141.406 33.4059V35.3668H129.639V23.6002H131.6Z" fill="#025411"/>
<path d="M88.8313 69.9728C86.1407 69.9728 83.7897 69.3613 81.7785 68.1382C79.7673 66.9152 78.2046 65.203 77.0903 63.0015C75.9759 60.8001 75.4188 58.2589 75.4188 55.378C75.4188 52.5786 75.9624 50.051 77.0495 47.7952C78.1366 45.5394 79.7402 43.7592 81.8601 42.4546C84.0072 41.1229 86.6163 40.457 89.6875 40.457C93.0304 40.457 95.8026 41.2588 98.0041 42.8623C100.206 44.4658 101.632 46.6809 102.285 49.5074H96.4549C96.02 48.1757 95.2319 47.1429 94.0904 46.4091C92.9489 45.6481 91.4812 45.2676 89.6875 45.2676C87.785 45.2676 86.1679 45.6753 84.8361 46.4906C83.5044 47.306 82.4852 48.4747 81.7785 49.9967C81.0991 51.4915 80.7593 53.2988 80.7593 55.4187C80.7593 57.5115 81.0991 59.3053 81.7785 60.8001C82.4852 62.2677 83.4772 63.3956 84.7546 64.1838C86.0591 64.9448 87.5811 65.3253 89.3205 65.3253C91.7666 65.3253 93.6419 64.7002 94.9465 63.45C96.251 62.1998 97.08 60.5419 97.4333 58.4763H88.3421V54.0734H102.815V69.4836H98.0041L97.5964 65.733C96.6723 67.0919 95.5172 68.1382 94.1311 68.8721C92.745 69.6059 90.9784 69.9728 88.8313 69.9728ZM116.621 69.9728C114.582 69.9728 112.761 69.5379 111.158 68.6682C109.581 67.7713 108.345 66.5211 107.448 64.9176C106.551 63.3141 106.102 61.4659 106.102 59.3732C106.102 57.1718 106.578 55.2829 107.529 53.7065C108.508 52.103 109.799 50.88 111.402 50.0374C113.033 49.1949 114.827 48.7736 116.784 48.7736C118.822 48.7736 120.643 49.2221 122.246 50.119C123.85 50.9887 125.114 52.2117 126.038 53.788C126.989 55.3644 127.465 57.2261 127.465 59.3732C127.465 61.4116 127.003 63.2325 126.079 64.8361C125.155 66.4396 123.877 67.7034 122.246 68.6275C120.643 69.5243 118.768 69.9728 116.621 69.9728ZM116.702 65.4476C117.789 65.4476 118.727 65.1758 119.515 64.6322C120.33 64.0615 120.969 63.3141 121.431 62.39C121.893 61.4388 122.124 60.406 122.124 59.2917C122.124 58.0143 121.866 56.9272 121.35 56.0303C120.86 55.1334 120.208 54.4539 119.393 53.9919C118.577 53.5298 117.68 53.2988 116.702 53.2988C115.642 53.2988 114.704 53.557 113.889 54.0734C113.101 54.5898 112.476 55.31 112.014 56.2341C111.579 57.131 111.362 58.1774 111.362 59.3732C111.362 60.5691 111.593 61.629 112.055 62.5531C112.544 63.4772 113.196 64.1974 114.011 64.7138C114.827 65.203 115.724 65.4476 116.702 65.4476Z" fill="white" fill-opacity="0.99"/>
<defs>
<linearGradient id="paint0_linear_57_112" x1="5.57255" y1="2.9378" x2="206.563" y2="104.835" gradientUnits="userSpaceOnUse">
<stop stop-color="#1B352B"/>
<stop offset="1" stop-color="#172923"/>
</linearGradient>
<linearGradient id="paint1_linear_57_112" x1="101.5" y1="0" x2="101.5" y2="158" gradientUnits="userSpaceOnUse">
<stop stop-color="#588157" stop-opacity="0.5"/>
<stop offset="0.5" stop-color="#31FF6B" stop-opacity="0.48"/>
</linearGradient>
</defs>
</svg>
