<svg width="304" height="182" viewBox="0 0 304 182" fill="none" xmlns="http://www.w3.org/2000/svg">
<path d="M86.4001 66.4001C86.4001 70.1001 86.8001 73.1001 87.5001 75.3001C88.3001 77.5001 89.3001 79.9001 90.7001 82.5001C91.2001 83.3001 91.4001 84.1001 91.4001 84.8001C91.4001 85.8001 90.8001 86.8001 89.5001 87.8001L83.2001 92.0001C82.3001 92.6001 81.4001 92.9001 80.6001 92.9001C79.6001 92.9001 78.6001 92.4001 77.6001 91.5001C76.2001 90.0001 75.0001 88.4001 74.0001 86.8001C73.0001 85.1001 72.0001 83.2001 70.9001 80.9001C63.1001 90.1001 53.3001 94.7001 41.5001 94.7001C33.1001 94.7001 26.4001 92.3001 21.5001 87.5001C16.6001 82.7001 14.1001 76.3001 14.1001 68.3001C14.1001 59.8001 17.1001 52.9001 23.2001 47.7001C29.3001 42.5001 37.4001 39.9001 47.7001 39.9001C51.1001 39.9001 54.6001 40.2001 58.3001 40.7001C62.0001 41.2001 65.8001 42.0001 69.8001 42.9001V35.6001C69.8001 28.0001 68.2001 22.7001 65.1001 19.6001C61.9001 16.5001 56.5001 15.0001 48.8001 15.0001C45.3001 15.0001 41.7001 15.4001 38.0001 16.3001C34.3001 17.2001 30.7001 18.3001 27.2001 19.7001C25.6001 20.4001 24.4001 20.8001 23.7001 21.0001C23.0001 21.2001 22.5001 21.3001 22.1001 21.3001C20.7001 21.3001 20.0001 20.3001 20.0001 18.2001V13.3001C20.0001 11.7001 20.2001 10.5001 20.7001 9.8001C21.2001 9.1001 22.1001 8.4001 23.5001 7.7001C27.0001 5.9001 31.2001 4.4001 36.1001 3.2001C41.0001 1.9001 46.2001 1.3001 51.7001 1.3001C63.6001 1.3001 72.3001 4.0001 77.9001 9.4001C83.4001 14.8001 86.2001 23.0001 86.2001 34.0001V66.4001H86.4001ZM45.8001 81.6001C49.1001 81.6001 52.5001 81.0001 56.1001 79.8001C59.7001 78.6001 62.9001 76.4001 65.6001 73.4001C67.2001 71.5001 68.4001 69.4001 69.0001 67.0001C69.6001 64.6001 70.0001 61.7001 70.0001 58.3001V54.1001C67.1001 53.4001 64.0001 52.8001 60.8001 52.4001C57.6001 52.0001 54.5001 51.8001 51.4001 51.8001C44.7001 51.8001 39.8001 53.1001 36.5001 55.8001C33.2001 58.5001 31.6001 62.3001 31.6001 67.3001C31.6001 72.0001 32.8001 75.5001 35.3001 77.9001C37.7001 80.4001 41.2001 81.6001 45.8001 81.6001ZM126.1 92.4001C124.3 92.4001 123.1 92.1001 122.3 91.4001C121.5 90.8001 120.8 89.4001 120.2 87.5001L96.7001 10.2001C96.1001 8.2001 95.8001 6.9001 95.8001 6.2001C95.8001 4.6001 96.6001 3.7001 98.2001 3.7001H108C109.9 3.7001 111.2 4.0001 111.9 4.7001C112.7 5.3001 113.3 6.7001 113.9 8.6001L130.7 74.8001L146.3 8.6001C146.8 6.6001 147.4 5.3001 148.2 4.7001C149 4.1001 150.4 3.7001 152.2 3.7001H160.2C162.1 3.7001 163.4 4.0001 164.2 4.7001C165 5.3001 165.7 6.7001 166.1 8.6001L181.9 75.6001L199.2 8.6001C199.8 6.6001 200.5 5.3001 201.2 4.7001C202 4.1001 203.3 3.7001 205.1 3.7001H214.4C216 3.7001 216.9 4.5001 216.9 6.2001C216.9 6.7001 216.8 7.2001 216.7 7.8001C216.6 8.4001 216.4 9.2001 216 10.3001L191.9 87.6001C191.3 89.6001 190.6 90.9001 189.8 91.5001C189 92.1001 187.7 92.5001 186 92.5001H177.4C175.5 92.5001 174.2 92.2001 173.4 91.5001C172.6 90.8001 171.9 89.5001 171.5 87.5001L156 23.0001L140.6 87.4001C140.1 89.4001 139.5 90.7001 138.7 91.4001C137.9 92.1001 136.5 92.4001 134.7 92.4001H126.1ZM254.6 95.1001C249.4 95.1001 244.2 94.5001 239.2 93.3001C234.2 92.1001 230.3 90.8001 227.7 89.3001C226.1 88.4001 225 87.4001 224.6 86.5001C224.2 85.6001 224 84.6001 224 83.7001V78.6001C224 76.5001 224.8 75.5001 226.3 75.5001C226.9 75.5001 227.5 75.6001 228.1 75.8001C228.7 76.0001 229.6 76.4001 230.6 76.8001C234 78.3001 237.7 79.5001 241.6 80.3001C245.6 81.1001 249.5 81.5001 253.5 81.5001C259.8 81.5001 264.7 80.4001 268.1 78.2001C271.5 76.0001 273.3 72.8001 273.3 68.7001C273.3 65.9001 272.4 63.6001 270.6 61.7001C268.8 59.8001 265.4 58.1001 260.5 56.5001L246 52.0001C238.7 49.7001 233.3 46.3001 230 41.8001C226.7 37.4001 225 32.5001 225 27.3001C225 23.1001 225.9 19.4001 227.7 16.2001C229.5 13.0001 231.9 10.2001 234.9 8.0001C237.9 5.7001 241.3 4.0001 245.3 2.8001C249.3 1.6001 253.5 1.1001 257.9 1.1001C260.1 1.1001 262.4 1.2001 264.6 1.5001C266.9 1.8001 269 2.2001 271.1 2.6001C273.1 3.1001 275 3.6001 276.8 4.2001C278.6 4.8001 280 5.4001 281 6.0001C282.4 6.8001 283.4 7.6001 284 8.5001C284.6 9.3001 284.9 10.4001 284.9 11.8001V16.5001C284.9 18.6001 284.1 19.7001 282.6 19.7001C281.8 19.7001 280.5 19.3001 278.8 18.5001C273.1 15.9001 266.7 14.6001 259.6 14.6001C253.9 14.6001 249.4 15.5001 246.3 17.4001C243.2 19.3001 241.6 22.2001 241.6 26.3001C241.6 29.1001 242.6 31.5001 244.6 33.4001C246.6 35.3001 250.3 37.2001 255.6 38.9001L269.8 43.4001C277 45.7001 282.2 48.9001 285.3 53.0001C288.4 57.1001 289.9 61.8001 289.9 67.0001C289.9 71.3001 289 75.2001 287.3 78.6001C285.5 82.0001 283.1 85.0001 280 87.4001C276.9 89.9001 273.2 91.7001 268.9 93.0001C264.4 94.4001 259.7 95.1001 254.6 95.1001Z" fill="#FDFDFD"/>
<path fill-rule="evenodd" clip-rule="evenodd" d="M273.5 143.7C240.6 168 192.8 180.9 151.7 180.9C94.1 180.9 42.2 159.6 2.99999 124.2C-0.100014 121.4 2.69999 117.6 6.39999 119.8C48.8 144.4 101.1 159.3 155.2 159.3C191.7 159.3 231.8 151.7 268.7 136.1C274.2 133.6 278.9 139.7 273.5 143.7Z" fill="#FF9900"/>
<path fill-rule="evenodd" clip-rule="evenodd" d="M287.2 128.1C283 122.7 259.4 125.5 248.7 126.8C245.5 127.2 245 124.4 247.9 122.3C266.7 109.1 297.6 112.9 301.2 117.3C304.8 121.8 300.2 152.7 282.6 167.5C279.9 169.8 277.3 168.6 278.5 165.6C282.5 155.7 291.4 133.4 287.2 128.1Z" fill="#FF9900"/>
</svg>
