<svg width="49" height="22" viewBox="0 0 49 22" fill="none" xmlns="http://www.w3.org/2000/svg">
<path d="M43.7023 10.6004L38.1023 9.30039L37.1023 8.90039L11.4023 9.10039V21.5004L43.7023 21.6004V10.6004Z" fill="white"/>
<path d="M33.204 20.4C33.3649 19.9741 33.4217 19.5159 33.3695 19.0636C33.3173 18.6113 33.1577 18.1781 32.904 17.8C32.6435 17.4876 32.3239 17.2297 31.9636 17.0409C31.6032 16.8522 31.2092 16.7363 30.804 16.7L13.404 16.5C13.304 16.5 13.204 16.4 13.104 16.4C13.0808 16.3825 13.0618 16.3599 13.0488 16.3339C13.0358 16.3078 13.029 16.2791 13.029 16.25C13.029 16.2209 13.0358 16.1922 13.0488 16.1662C13.0618 16.1401 13.0808 16.1175 13.104 16.1C13.204 15.9 13.304 15.8 13.504 15.8L31.004 15.6C32.115 15.4767 33.1731 15.0597 34.0695 14.3918C34.9659 13.7239 35.6681 12.8293 36.104 11.8L37.104 9.20002C37.104 9.10002 37.204 9.00001 37.104 8.90001C36.5604 6.47843 35.2411 4.30052 33.3466 2.69721C31.4521 1.09391 29.086 0.152865 26.6079 0.0170769C24.1298 -0.118712 21.675 0.558179 19.6167 1.94489C17.5584 3.33161 16.009 5.35233 15.204 7.70002C14.159 6.95365 12.8843 6.59957 11.604 6.70002C10.4291 6.83102 9.33369 7.35777 8.49774 8.19372C7.66179 9.02966 7.13505 10.1251 7.00404 11.3C6.93745 11.9014 6.97125 12.5097 7.10404 13.1C5.20298 13.1526 3.39743 13.9448 2.07147 15.3081C0.745511 16.6714 0.00377461 18.4982 0.00403983 20.4C-0.0123708 20.7695 0.0212659 21.1395 0.104038 21.5C0.10863 21.5781 0.141713 21.6517 0.19701 21.707C0.252307 21.7623 0.325975 21.7954 0.404041 21.8H32.504C32.704 21.8 32.904 21.7 32.904 21.5L33.204 20.4Z" fill="#F48120"/>
<path d="M38.7056 9.2002H38.2056C38.1056 9.2002 38.0056 9.3002 37.9056 9.4002L37.2056 11.8002C37.0447 12.2261 36.988 12.6843 37.0402 13.1366C37.0924 13.5889 37.252 14.0221 37.5056 14.4002C37.7662 14.7126 38.0858 14.9705 38.4461 15.1593C38.8065 15.348 39.2005 15.4639 39.6056 15.5002L43.3056 15.7002C43.4056 15.7002 43.5056 15.8002 43.6056 15.8002C43.6289 15.8177 43.6478 15.8403 43.6608 15.8663C43.6739 15.8924 43.6806 15.9211 43.6806 15.9502C43.6806 15.9793 43.6739 16.008 43.6608 16.034C43.6478 16.0601 43.6289 16.0827 43.6056 16.1002C43.5056 16.3002 43.4056 16.4002 43.2056 16.4002L39.4056 16.6002C38.2946 16.7235 37.2365 17.1405 36.3402 17.8084C35.4438 18.4763 34.7416 19.3709 34.3056 20.4002L34.1056 21.3002C34.0056 21.4002 34.1056 21.6002 34.3056 21.6002H47.5056C47.5464 21.606 47.5879 21.6023 47.627 21.5893C47.666 21.5762 47.7015 21.5543 47.7306 21.5252C47.7597 21.4961 47.7817 21.4606 47.7947 21.4215C47.8077 21.3825 47.8115 21.3409 47.8056 21.3002C48.0437 20.4529 48.178 19.5799 48.2056 18.7002C48.1898 16.1855 47.1838 13.7784 45.4056 12.0002C43.6275 10.222 41.2203 9.21605 38.7056 9.2002Z" fill="#FAAD3F"/>
</svg>
