<svg xmlns="http://www.w3.org/2000/svg" viewBox="0 0 125.7 125.6"><defs><style>.cls-1{fill:#e01e5a;}.cls-2{fill:#36c5f0;}.cls-3{fill:#2eb67d;}.cls-4{fill:#ecb22e;}</style></defs><title>Asset 1</title><g id="Layer_2" data-name="Layer 2"><g id="Layer_1-2" data-name="Layer 1"><path class="cls-1" d="M26.5,79.4A13.2,13.2,0,1,1,13.3,66.2H26.5Zm6.6,0a13.2,13.2,0,0,1,26.4,0v33a13.2,13.2,0,0,1-26.4,0Z"/><path class="cls-2" d="M46.3,26.4A13.2,13.2,0,1,1,59.5,13.2V26.4Zm0,6.7a13.2,13.2,0,1,1,0,26.4H13.2a13.2,13.2,0,0,1,0-26.4Z"/><path class="cls-3" d="M99.2,46.3a13.2,13.2,0,1,1,13.2,13.2H99.2Zm-6.6,0a13.2,13.2,0,1,1-26.4,0V13.2a13.2,13.2,0,1,1,26.4,0Z"/><path class="cls-4" d="M79.4,99.2a13.2,13.2,0,1,1-13.2,13.2V99.2Zm0-6.6a13.2,13.2,0,0,1,0-26.4h33.1a13.2,13.2,0,1,1,0,26.4Z"/></g></g></svg>