<svg width="683" height="683" viewBox="0 0 683 683" fill="none" xmlns="http://www.w3.org/2000/svg">
<g clip-path="url(#clip0_363_649)">
<path d="M308 1.46679C241.067 8.80013 178.134 34.6668 127.334 75.6001C110.134 89.4668 82.0002 118.4 69.6002 134.933C34.2668 182.133 11.7335 236 3.20017 294C0.266837 313.6 -0.666497 351.067 1.20017 370.667C6.80017 428.4 25.2002 481.733 55.2002 527.2C110.4 611.067 194.8 664.8 294 679.467C313.6 682.4 351.067 683.333 370.667 681.467C428.4 675.867 481.734 657.467 527.2 627.467C611.067 572.267 664.8 487.867 679.467 388.667C682.4 369.067 683.334 331.6 681.467 312C674.667 242.133 649.734 180.267 607.067 127.333C593.2 110.133 564.267 82.0001 547.734 69.6001C500.534 34.2668 447.067 12.0001 388.667 3.20013C372.534 0.800127 323.734 -0.26654 308 1.46679ZM429.2 314.533C475.467 395.467 513.334 461.867 513.334 462.133C513.334 462.4 437.467 462.667 344.667 462.667C251.867 462.667 176 462.4 176 462C176 460.933 344.4 166.533 344.8 167.067C344.934 167.2 383.067 233.6 429.2 314.533Z" fill="white"/>
</g>
<defs>
<clipPath id="clip0_363_649">
<rect width="682.667" height="682.667" fill="white"/>
</clipPath>
</defs>
</svg>
